<?xml version="1.0" encoding="UTF-8" standalone="no"?>
<!-- Created with Inkscape (http://www.inkscape.org/) -->

<svg
   xmlns:dc="http://purl.org/dc/elements/1.1/"
   xmlns:cc="http://creativecommons.org/ns#"
   xmlns:rdf="http://www.w3.org/1999/02/22-rdf-syntax-ns#"
   xmlns:svg="http://www.w3.org/2000/svg"
   xmlns="http://www.w3.org/2000/svg"
   version="1.1"
   width="702"
   height="602"
   id="roadsign">
  <metadata
     id="metadata10">
    <rdf:RDF>
      <cc:Work
         rdf:about="">
        <dc:format>image/svg+xml</dc:format>
        <dc:type
           rdf:resource="http://purl.org/dc/dcmitype/StillImage" />
        <dc:title></dc:title>
      </cc:Work>
    </rdf:RDF>
  </metadata>
  <defs
     id="defs2989" />
  <rect
     width="702"
     height="602"
     x="0"
     y="0"
     id="background"
     style="fill:#007b30;stroke:none" />
  <rect
     width="680"
     height="580"
     rx="50"
     ry="50"
     x="11"
     y="11"
     id="border"
     style="fill:none;stroke:#ffffff;stroke-width:20" />
  <path
     d="m 331.94373,86.307 0,34.068 25.718,0 c 12.52499,0 18.871,-8.35001 18.871,-17.869 0,-5.510994 -1.837,-9.853003 -5.511,-12.692 -3.33999,-2.337998 -7.515,-3.507 -12.525,-3.507 l -26.553,0 m -16.867,96.693 0,-111.723 43.587,0 c 9.51899,0 17.03401,2.505005 22.879,7.348 6.012,5.510994 11.022,13.86101 11.022,23.881 0,14.69599 -8.18301,26.386 -21.543,31.062 l 25.885,49.432 -20.207,0 -23.046,-47.595 -21.71,0 0,47.595 -16.867,0"
     id="prefix"
     style="fill:#ffe200;stroke:none" />
  <g
     id="number"
     style="fill:#ffe200;stroke:none">
    <path
       d="m 140.9789,394.10562 0,-35.01955 13.18383,0 c 13.32106,-0.18867 23.75825,-3.82796 31.31159,-10.91787 7.55312,-7.08957 11.3984,-16.49677 11.53585,-28.22163 -0.34345,-11.57856 -4.39473,-21.07159 -12.15385,-28.47913 -7.75933,-7.40709 -17.16653,-11.2352 -28.22163,-11.48435 -8.55755,0.026 -16.47127,2.85845 -23.74119,8.4974 -7.27005,5.6394 -11.99081,13.93078 -14.16232,24.87417 l -39.551489,0 c 0.600823,-9.26967 2.901127,-18.12755 6.900917,-26.57367 3.999763,-8.44565 9.802014,-16.47953 17.406772,-24.10168 14.90043,-14.83154 32.06686,-22.24744 51.49934,-22.24771 24.71957,0.0689 44.49529,8.1715 59.32723,24.30768 14.83165,16.06803 22.24755,34.19578 22.24771,54.3833 0.20584,10.80647 -1.85413,21.12349 -6.17992,30.95111 -4.3261,9.82795 -12.15399,18.59999 -23.48369,26.31616 11.64728,7.63062 20.07599,16.78033 25.28616,27.44915 5.20985,10.66905 7.76765,21.56973 7.67341,32.70207 -0.0688,25.95572 -8.17138,46.55544 -24.30768,61.79921 -15.99926,15.17513 -35.91232,22.72836 -59.73924,22.6597 -18.19649,-0.0687 -34.95092,-6.11124 -50.26335,-18.12776 -7.424507,-5.95674 -13.484256,-13.30398 -18.179261,-22.04173 -4.695036,-8.73767 -7.973825,-18.96886 -9.836377,-30.69359 l 39.551488,0 c 3.33882,9.43301 8.19692,17.03773 14.57431,22.81419 6.37727,5.77656 15.25231,8.74635 26.62516,8.9094 11.12376,-0.11155 20.80563,-4.00833 29.04562,-11.69036 8.23977,-7.68193 12.56571,-18.47961 12.97784,-32.39308 -0.34345,-14.07639 -4.60073,-24.85691 -12.77183,-32.34158 -8.17134,-7.48445 -18.19654,-11.26107 -30.07562,-11.32985 z"
       id="path3037" />
    <path
       d="m 270.83043,518.52802 0,-36.66753 107.94261,-135.13426 c 4.01682,-5.50168 6.69478,-10.46277 8.03389,-14.88331 1.33885,-4.42017 1.95684,-8.66028 1.85398,-12.72034 0.008,-4.7549 -0.83271,-9.35551 -2.52347,-13.80183 -1.69103,-4.44589 -4.28315,-8.6345 -7.7764,-12.56583 -6.93536,-8.58299 -16.13656,-12.84026 -27.60364,-12.77183 -11.13252,0.1204 -20.38523,3.69102 -27.75815,10.71186 -7.37305,7.02129 -11.57882,16.77183 -12.61733,29.25162 l -39.55149,0 c -0.009,-11.31248 1.86255,-21.64668 5.61344,-31.00261 3.75084,-9.35548 9.43293,-17.83569 17.04627,-25.44066 15.31241,-15.3122 33.30283,-23.00276 53.9713,-23.0717 11.34692,0.009 21.81844,1.94867 31.4146,5.81942 9.59592,3.8713 18.21346,9.62206 25.85267,17.25228 7.63033,7.63931 13.38108,16.15386 17.25227,25.54367 3.87086,9.39027 5.81067,19.5528 5.81943,30.48761 -1.7e-4,18.88327 -5.3561,35.08838 -16.06779,48.61537 l -88.99086,111.23857 105.05865,0 0,39.1395 z"
       id="path3039" />
    <path
       d="m 463.71715,392.04564 0,-149.14208 147.08211,0 0,39.55149 -110.00259,0 0,62.2112 c 12.77177,-9.88769 27.60356,-14.83162 44.49543,-14.83181 10.23109,0.1461 19.63829,2.12024 28.22163,5.92243 8.58309,3.80254 15.51833,8.55765 20.80574,14.26531 3.51896,3.9227 6.67759,8.12848 9.47588,12.61735 2.79797,4.48917 5.13261,9.20994 7.00391,14.16231 3.63911,8.99535 5.42442,25.20046 5.35593,48.61537 0.008,9.66479 -0.31776,17.93901 -0.97849,24.82268 -0.66108,6.88381 -1.70823,12.48007 -3.14146,16.78879 -1.42498,4.32599 -3.21029,8.54893 -5.35593,12.66884 -2.14596,4.11998 -4.75526,8.13693 -7.8279,12.05084 -5.63075,7.167 -13.52731,13.74175 -23.6897,19.72424 -10.16265,5.98251 -22.17915,9.1583 -36.04953,9.52738 -8.84081,0.009 -17.52703,-1.34756 -26.05868,-4.06844 -8.53178,-2.72088 -17.01199,-6.85799 -25.44066,-12.41134 -8.23135,-5.54475 -14.73742,-12.89199 -19.51825,-22.04173 -4.78087,-9.14967 -7.88799,-20.20484 -9.32137,-33.16556 l 39.55149,0 c 4.53188,21.76709 17.7157,32.61628 39.55149,32.54758 18.95164,3e-5 30.07549,-6.59187 33.37157,-19.77575 3.63915,-13.18376 5.42446,-26.36758 5.35593,-39.55149 0.0685,-15.72435 -2.54076,-28.35884 -7.8279,-37.90351 -5.35605,-10.23106 -16.0679,-15.31233 -32.13559,-15.2438 -15.24388,-0.0685 -27.19171,7.48471 -35.84354,22.6597 z"
       id="path3041" />
  </g>
</svg>
