<?xml version="1.0" encoding="UTF-8" standalone="no"?>
<!-- Created with Inkscape (http://www.inkscape.org/) -->

<svg
   xmlns:dc="http://purl.org/dc/elements/1.1/"
   xmlns:cc="http://creativecommons.org/ns#"
   xmlns:rdf="http://www.w3.org/1999/02/22-rdf-syntax-ns#"
   xmlns:svg="http://www.w3.org/2000/svg"
   xmlns="http://www.w3.org/2000/svg"
   version="1.1"
   width="702"
   height="602"
   id="roadsign">
  <metadata
     id="metadata10">
    <rdf:RDF>
      <cc:Work
         rdf:about="">
        <dc:format>image/svg+xml</dc:format>
        <dc:type
           rdf:resource="http://purl.org/dc/dcmitype/StillImage" />
        <dc:title></dc:title>
      </cc:Work>
    </rdf:RDF>
  </metadata>
  <defs
     id="defs2989" />
  <rect
     width="702"
     height="602"
     x="0"
     y="0"
     id="background"
     style="fill:#007b30;stroke:none" />
  <rect
     width="680"
     height="580"
     rx="50"
     ry="50"
     x="11"
     y="11"
     id="border"
     style="fill:none;stroke:#ffffff;stroke-width:20" />
  <path
     d="m 331.94373,86.307 0,34.068 25.718,0 c 12.52499,0 18.871,-8.35001 18.871,-17.869 0,-5.510994 -1.837,-9.853003 -5.511,-12.692 -3.33999,-2.337998 -7.515,-3.507 -12.525,-3.507 l -26.553,0 m -16.867,96.693 0,-111.723 43.587,0 c 9.51899,0 17.03401,2.505005 22.879,7.348 6.012,5.510994 11.022,13.86101 11.022,23.881 0,14.69599 -8.18301,26.386 -21.543,31.062 l 25.885,49.432 -20.207,0 -23.046,-47.595 -21.71,0 0,47.595 -16.867,0"
     id="prefix"
     style="fill:#ffe200;stroke:none" />
  <g
     id="number"
     style="fill:#ffe200;stroke:none">
    <path
       d="m 139.77186,394.10562 0,-35.01955 13.18383,0 c 13.32107,-0.18867 23.75826,-3.82796 31.3116,-10.91787 7.55312,-7.08957 11.3984,-16.49677 11.53585,-28.22163 -0.34345,-11.57856 -4.39473,-21.07159 -12.15385,-28.47913 -7.75934,-7.40709 -17.16654,-11.2352 -28.22163,-11.48435 -8.55755,0.026 -16.47127,2.85845 -23.74119,8.4974 -7.27005,5.6394 -11.99082,13.93078 -14.16232,24.87417 l -39.55149,0 c 0.600823,-9.26967 2.901126,-18.12755 6.900917,-26.57367 3.999763,-8.44565 9.802014,-16.47953 17.406773,-24.10168 14.90043,-14.83154 32.06686,-22.24744 51.49933,-22.24771 24.71958,0.0689 44.4953,8.1715 59.32724,24.30768 14.83165,16.06803 22.24755,34.19578 22.24771,54.3833 0.20584,10.80647 -1.85413,21.12349 -6.17992,30.95111 -4.3261,9.82795 -12.15399,18.59999 -23.48369,26.31616 11.64728,7.63062 20.07599,16.78033 25.28616,27.44915 5.20985,10.66905 7.76765,21.56973 7.67341,32.70207 -0.0688,25.95572 -8.17138,46.55544 -24.30769,61.79921 -15.99925,15.17513 -35.91231,22.72836 -59.73923,22.6597 -18.19649,-0.0687 -34.95092,-6.11124 -50.26335,-18.12776 -7.424509,-5.95674 -13.484257,-13.30398 -18.179263,-22.04173 -4.695035,-8.73767 -7.973824,-18.96886 -9.836376,-30.69359 l 39.551489,0 c 3.33882,9.43301 8.19692,17.03773 14.5743,22.81419 6.37727,5.77656 15.25232,8.74635 26.62517,8.9094 11.12376,-0.11155 20.80562,-4.00833 29.04562,-11.69036 8.23977,-7.68193 12.56571,-18.47961 12.97784,-32.39308 -0.34345,-14.07639 -4.60073,-24.85691 -12.77184,-32.34158 -8.17133,-7.48445 -18.19653,-11.26107 -30.07561,-11.32985 z"
       id="path3137" />
    <path
       d="m 269.6234,518.52802 0,-36.66753 107.94261,-135.13426 c 4.01682,-5.50168 6.69478,-10.46277 8.03389,-14.88331 1.33885,-4.42017 1.95684,-8.66028 1.85398,-12.72034 0.008,-4.7549 -0.83271,-9.35551 -2.52348,-13.80183 -1.69102,-4.44589 -4.28315,-8.6345 -7.77639,-12.56583 -6.93536,-8.58299 -16.13656,-12.84026 -27.60364,-12.77183 -11.13253,0.1204 -20.38523,3.69102 -27.75815,10.71186 -7.37305,7.02129 -11.57882,16.77183 -12.61733,29.25162 l -39.55149,0 c -0.009,-11.31248 1.86255,-21.64668 5.61344,-31.00261 3.75084,-9.35548 9.43293,-17.83569 17.04627,-25.44066 15.31241,-15.3122 33.30283,-23.00276 53.9713,-23.0717 11.34692,0.009 21.81844,1.94867 31.4146,5.81942 9.59591,3.8713 18.21346,9.62206 25.85266,17.25228 7.63033,7.63931 13.38109,16.15386 17.25228,25.54367 3.87086,9.39027 5.81067,19.5528 5.81943,30.48761 -1.7e-4,18.88327 -5.3561,35.08838 -16.0678,48.61537 l -88.99085,111.23857 105.05865,0 0,39.1395 z"
       id="path3139" />
    <path
       d="m 605.88427,371.03391 -74.15904,148.73009 -44.08343,0 58.09125,-116.5945 -0.82399,0 c -6.66067,2.12875 -13.52724,3.2274 -20.59974,3.29596 -17.23517,-0.0686 -32.61629,-6.11113 -46.1434,-18.12777 -6.59195,-5.95662 -11.53588,-13.81885 -14.83181,-23.5867 -3.29598,-9.76754 -4.94395,-21.54371 -4.94394,-35.32854 -1e-5,-31.72337 8.23987,-54.38306 24.71969,-67.97912 16.96038,-13.66423 35.77479,-20.5308 56.44327,-20.59974 19.36363,-0.0684 37.07939,7.48484 53.14731,22.65971 16.13629,15.3127 24.23885,35.77509 24.30769,61.38721 -1.7e-4,17.23529 -3.70812,32.61641 -11.12386,46.1434 z m -68.39111,0 c 10.64309,-0.0685 19.8443,-3.63913 27.60364,-10.71186 7.89643,-7.00374 11.87904,-18.53958 11.94785,-34.60755 -1.4e-4,-30.14406 -13.18396,-45.25052 -39.55149,-45.31942 -9.13264,0.0689 -18.05918,3.63953 -26.77966,10.71186 -8.58329,7.00413 -12.84056,18.53997 -12.77184,34.60756 -5e-5,16.06797 3.7079,27.60381 11.12386,34.60755 7.82783,7.07272 17.30369,10.64334 28.42764,10.71186 z"
       id="path3141" />
  </g>
</svg>
