<?xml version="1.0" encoding="UTF-8" standalone="no"?>
<!-- Created with Inkscape (http://www.inkscape.org/) -->

<svg
   xmlns:dc="http://purl.org/dc/elements/1.1/"
   xmlns:cc="http://creativecommons.org/ns#"
   xmlns:rdf="http://www.w3.org/1999/02/22-rdf-syntax-ns#"
   xmlns:svg="http://www.w3.org/2000/svg"
   xmlns="http://www.w3.org/2000/svg"
   version="1.1"
   width="702"
   height="602"
   id="roadsign">
  <metadata
     id="metadata10">
    <rdf:RDF>
      <cc:Work
         rdf:about="">
        <dc:format>image/svg+xml</dc:format>
        <dc:type
           rdf:resource="http://purl.org/dc/dcmitype/StillImage" />
        <dc:title></dc:title>
      </cc:Work>
    </rdf:RDF>
  </metadata>
  <defs
     id="defs2989" />
  <rect
     width="702"
     height="602"
     x="0"
     y="0"
     id="background"
     style="fill:#007b30;stroke:none" />
  <rect
     width="680"
     height="580"
     rx="50"
     ry="50"
     x="11"
     y="11"
     id="border"
     style="fill:none;stroke:#ffffff;stroke-width:20" />
  <path
     d="m 331.94373,86.307 0,34.068 25.718,0 c 12.52499,0 18.871,-8.35001 18.871,-17.869 0,-5.510994 -1.837,-9.853003 -5.511,-12.692 -3.33999,-2.337998 -7.515,-3.507 -12.525,-3.507 l -26.553,0 m -16.867,96.693 0,-111.723 43.587,0 c 9.51899,0 17.03401,2.505005 22.879,7.348 6.012,5.510994 11.022,13.86101 11.022,23.881 0,14.69599 -8.18301,26.386 -21.543,31.062 l 25.885,49.432 -20.207,0 -23.046,-47.595 -21.71,0 0,47.595 -16.867,0"
     id="prefix"
     style="fill:#ffe200;stroke:none" />
  <g
     id="number"
     style="fill:#ffe200;stroke:none">
    <path
       d="m 140.97978,394.10402 0,-35.02 13.184,0 c 26.36797,0 42.848,-16.06803 42.848,-39.14 0,-22.65998 -18.95202,-39.964 -40.376,-39.964 -16.47998,0 -34.196,11.53602 -37.904,33.372 l -39.551999,0 c 1.235999,-18.53999 9.064015,-35.43202 24.307999,-50.676 14.83199,-14.83199 32.13602,-22.248 51.5,-22.248 24.71998,0 44.49602,8.24001 59.328,24.308 14.83199,16.06798 22.248,34.19602 22.248,54.384 0,21.42397 -6.59202,42.02401 -29.664,57.268 23.48398,14.83198 32.96,38.31602 32.96,60.152 0,25.95597 -8.24001,46.55601 -24.308,61.8 -16.06798,15.24398 -35.84402,22.66 -59.74,22.66 -18.12798,0 -35.02001,-6.18002 -50.264,-18.128 -14.831984,-11.94799 -24.308002,-29.25203 -28.015999,-52.736 l 39.551999,0 c 7.00399,18.53998 18.12802,31.724 41.2,31.724 21.42398,0 42.024,-16.48003 42.024,-44.084 0,-28.01598 -19.77602,-43.672 -42.848,-43.672 l -16.48,0"
       id="path3101" />
    <path
       d="m 263.00259,477.74002 0,-37.08 92.288,-197.76 44.084,0 -93.112,197.76 72.1,0 0,-79.516 39.552,0 0,79.516 21.836,0 0,37.08 -21.836,0 0,40.788 -39.552,0 0,-40.788 -115.36,0"
       id="path3103" />
    <path
       d="m 576.19341,439.42402 0,-117.008 c 0,-26.77998 -15.65603,-42.436 -38.728,-42.436 -24.71998,0 -38.728,15.65602 -38.728,42.436 l 0,117.008 c 0,26.77997 14.00802,42.436 38.728,42.436 23.07197,0 38.728,-15.65603 38.728,-42.436 m -117.008,2.472 0,-121.952 c 0,-25.13198 7.82801,-44.90802 23.484,-58.504 16.06798,-14.00799 34.19602,-21.012 54.796,-21.012 19.77598,0 37.90401,7.00401 53.972,21.012 16.06798,13.59598 24.308,33.37202 24.308,58.504 l 0,121.952 c 0,25.13197 -8.24002,44.90801 -24.308,58.504 -16.06799,13.59598 -34.19602,20.6 -53.972,20.6 -20.18798,0 -38.72802,-7.00402 -54.796,-20.6 -15.65599,-13.59599 -23.484,-32.96003 -23.484,-58.504"
       id="path3105" />
  </g>
</svg>
