<?xml version="1.0" encoding="UTF-8" standalone="no"?>
<!-- Created with Inkscape (http://www.inkscape.org/) -->

<svg
   xmlns:dc="http://purl.org/dc/elements/1.1/"
   xmlns:cc="http://creativecommons.org/ns#"
   xmlns:rdf="http://www.w3.org/1999/02/22-rdf-syntax-ns#"
   xmlns:svg="http://www.w3.org/2000/svg"
   xmlns="http://www.w3.org/2000/svg"
   version="1.1"
   width="851.828"
   height="851.828"
   id="svg3852">
  <metadata
     id="metadata5159">
    <rdf:RDF>
      <cc:Work
         rdf:about="">
        <dc:format>image/svg+xml</dc:format>
        <dc:type
           rdf:resource="http://purl.org/dc/dcmitype/StillImage" />
        <dc:title></dc:title>
      </cc:Work>
    </rdf:RDF>
  </metadata>
  <defs
     id="defs3854" />
  <path
     d="M 0,425.914 425.914,0 851.828,425.914 425.914,851.828 z"
     id="background"
     style="fill:#007b30;fill-opacity:1;stroke:none" />
  <path
     d="M 15.556,425.914 425.914,15.556 836.272,425.914 425.914,836.272 z"
     id="border"
     style="fill:none;stroke:#ffffff;stroke-width:20;stroke-linecap:butt;stroke-linejoin:miter;stroke-miterlimit:4;stroke-opacity:1;stroke-dasharray:none" />
  <path
     d="m 406.85774,148.721 0,34.068 25.718,0 c 12.52498,0 18.871,-8.35001 18.871,-17.869 0,-5.51099 -1.83701,-9.853 -5.511,-12.692 -3.34,-2.338 -7.51501,-3.507 -12.525,-3.507 l -26.553,0 m -16.867,96.693 0,-111.723 43.587,0 c 9.51899,0 17.034,2.50501 22.879,7.348 6.01199,5.511 11.022,13.86101 11.022,23.881 0,14.69599 -8.18302,26.38601 -21.543,31.062 l 25.885,49.432 -20.207,0 -23.046,-47.595 -21.71,0 0,47.595 -16.867,0"
     id="prefix"
     style="fill:#ffe200;stroke:none" />
  <g
     id="number"
     style="fill:#ffe200;stroke:none">
    <path
       d="m 308.8343,439.4916 0,-35.01955 13.18383,0 c 13.32107,-0.18866 23.75826,-3.82795 31.3116,-10.91786 7.55312,-7.08957 11.3984,-16.49677 11.53585,-28.22163 -0.34346,-11.57856 -4.39473,-21.0716 -12.15385,-28.47914 -7.75934,-7.40709 -17.16654,-11.2352 -28.22163,-11.48435 -8.55755,0.026 -16.47127,2.85846 -23.7412,8.4974 -7.27004,5.63941 -11.99081,13.93079 -14.16231,24.87417 l -39.55149,0 c 0.60082,-9.26967 2.90113,-18.12755 6.90092,-26.57366 3.99976,-8.44565 9.80201,-16.47954 17.40677,-24.10168 14.90043,-14.83154 32.06686,-22.24744 51.49933,-22.24772 24.71958,0.0689 44.4953,8.1715 59.32724,24.30769 14.83165,16.06803 22.24755,34.19578 22.24771,54.3833 0.20584,10.80646 -1.85413,21.12349 -6.17992,30.9511 -4.3261,9.82796 -12.15399,18.6 -23.4837,26.31616 11.64729,7.63063 20.076,16.78034 25.28617,27.44916 5.20985,10.66905 7.76765,21.56972 7.67341,32.70207 -0.0688,25.95572 -8.17138,46.55543 -24.30769,61.7992 -15.99926,15.17514 -35.91231,22.72837 -59.73923,22.65971 -18.19649,-0.0687 -34.95093,-6.11125 -50.26335,-18.12777 -7.42451,-5.95674 -13.48426,-13.30397 -18.17926,-22.04172 -4.69504,-8.73767 -7.97383,-18.96886 -9.83638,-30.6936 l 39.55149,0 c 3.33882,9.43301 8.19692,17.03774 14.5743,22.8142 6.37727,5.77655 15.25232,8.74635 26.62517,8.90939 11.12376,-0.11154 20.80562,-4.00832 29.04562,-11.69035 8.23977,-7.68193 12.56571,-18.47961 12.97784,-32.39308 -0.34345,-14.07639 -4.60073,-24.85691 -12.77184,-32.34159 -8.17134,-7.48445 -18.19653,-11.26106 -30.07561,-11.32985 z"
       id="path3084" />
    <path
       d="m 430.85794,523.12653 0,-37.07953 92.28681,-197.75745 44.08343,0 -93.1108,197.75745 72.09907,0 0,-79.51497 39.55149,0 0,79.51497 21.83572,0 0,37.07953 -21.83572,0 0,40.78747 -39.55149,0 0,-40.78747 z"
       id="path3086" />
  </g>
</svg>
