<?xml version="1.0" encoding="UTF-8" standalone="no"?>
<!-- Created with Inkscape (http://www.inkscape.org/) -->

<svg
   xmlns:dc="http://purl.org/dc/elements/1.1/"
   xmlns:cc="http://creativecommons.org/ns#"
   xmlns:rdf="http://www.w3.org/1999/02/22-rdf-syntax-ns#"
   xmlns:svg="http://www.w3.org/2000/svg"
   xmlns="http://www.w3.org/2000/svg"
   xmlns:sodipodi="http://sodipodi.sourceforge.net/DTD/sodipodi-0.dtd"
   xmlns:inkscape="http://www.inkscape.org/namespaces/inkscape"
   width="702"
   height="602"
   id="roadsign"
   version="1.1"
   inkscape:version="0.48.4 r9939"
   sodipodi:docname="SA_road_R382.svg">
  <metadata
     id="metadata10">
    <rdf:RDF>
      <cc:Work
         rdf:about="">
        <dc:format>image/svg+xml</dc:format>
        <dc:type
           rdf:resource="http://purl.org/dc/dcmitype/StillImage" />
      </cc:Work>
    </rdf:RDF>
  </metadata>
  <defs
     id="defs2989" />
  <sodipodi:namedview
     id="base"
     pagecolor="#ffffff"
     bordercolor="#666666"
     borderopacity="1.0"
     inkscape:pageopacity="0.0"
     inkscape:pageshadow="2"
     inkscape:zoom="1.0813953"
     inkscape:cx="351"
     inkscape:cy="301"
     inkscape:document-units="px"
     inkscape:current-layer="roadsign"
     showgrid="false"
     inkscape:window-width="1920"
     inkscape:window-height="1030"
     inkscape:window-x="0"
     inkscape:window-y="0"
     inkscape:window-maximized="1" />
  <rect
     y="0"
     x="0"
     height="602"
     width="702"
     id="background"
     style="fill:#007b30;stroke:none" />
  <rect
     style="fill:none;stroke:#ffffff;stroke-width:20"
     id="border"
     width="680"
     height="580"
     x="11"
     y="11"
     ry="50"
     rx="50" />
  <path
     id="prefix"
     style="fill:#ffe200;stroke:none"
     d="m 331.94373,86.307 0,34.068 25.718,0 c 12.52499,0 18.871,-8.35001 18.871,-17.869 0,-5.510994 -1.837,-9.853003 -5.511,-12.692 -3.33999,-2.337998 -7.515,-3.507 -12.525,-3.507 l -26.553,0 m -16.867,96.693 0,-111.723 43.587,0 c 9.51899,0 17.03401,2.505005 22.879,7.348 6.012,5.510994 11.022,13.86101 11.022,23.881 0,14.69599 -8.18301,26.386 -21.543,31.062 l 25.885,49.432 -20.207,0 -23.046,-47.595 -21.71,0 0,47.595 -16.867,0"
     inkscape:connector-curvature="0" />
  <g
     style="fill:#ffe200;stroke:none"
     id="number">
    <path
       d="m 140.97978,394.10402 0,-35.02 13.184,0 c 26.36797,0 42.848,-16.06803 42.848,-39.14 0,-22.65998 -18.95202,-39.964 -40.376,-39.964 -16.47998,0 -34.196,11.53602 -37.904,33.372 l -39.551999,0 c 1.235999,-18.53999 9.064015,-35.43202 24.307999,-50.676 14.83199,-14.83199 32.13602,-22.248 51.5,-22.248 24.71998,0 44.49602,8.24001 59.328,24.308 14.83199,16.06798 22.248,34.19602 22.248,54.384 0,21.42397 -6.59202,42.02401 -29.664,57.268 23.48398,14.83198 32.96,38.31602 32.96,60.152 0,25.95597 -8.24001,46.55601 -24.308,61.8 -16.06798,15.24398 -35.84402,22.66 -59.74,22.66 -18.12798,0 -35.02001,-6.18002 -50.264,-18.128 -14.831984,-11.94799 -24.308002,-29.25203 -28.015999,-52.736 l 39.551999,0 c 7.00399,18.53998 18.12802,31.724 41.2,31.724 21.42398,0 42.024,-16.48003 42.024,-44.084 0,-28.01598 -19.77602,-43.672 -42.848,-43.672 l -16.48,0"
       id="path3117"
       inkscape:connector-curvature="0" />
    <path
       d="m 312.03059,319.53202 c 0,26.36797 19.36402,39.552 39.552,39.552 19.36398,0 39.552,-13.18403 39.552,-39.552 0,-26.36798 -20.18802,-39.552 -39.552,-39.552 -20.18798,0 -39.552,13.18402 -39.552,39.552 m -44.496,118.656 c 0,-26.77998 10.71203,-47.38002 32.548,-61.8 -16.47998,-15.24399 -27.604,-31.31203 -27.604,-56.032 0,-22.65998 7.41602,-41.20002 22.66,-56.444 15.24399,-15.65599 33.78403,-23.484 56.444,-23.484 21.83598,0 40.78802,7.82801 56.032,23.484 15.24399,15.24398 23.072,34.19602 23.072,56.444 0,24.71997 -11.53601,40.78801 -27.604,56.032 21.83598,14.41998 32.548,35.02002 32.548,61.8 0,25.13197 -8.24001,44.90801 -25.132,60.152 -16.06798,15.24398 -35.84402,22.66 -58.916,22.66 -23.48397,0 -43.26001,-7.41602 -59.328,-22.66 -16.47998,-15.24399 -24.72,-35.02003 -24.72,-60.152 m 39.552,-0.412 c 0,12.35998 4.53201,23.072 13.184,31.724 8.652,8.23999 18.95202,12.36 31.312,12.36 11.53599,0 21.83601,-4.12001 30.9,-12.36 9.06399,-8.652 13.596,-18.95202 13.596,-31.724 0,-12.77199 -4.53201,-23.07201 -13.596,-31.312 -9.06399,-8.24 -19.36401,-12.36 -30.9,-12.36 -24.30797,0 -44.496,18.54002 -44.496,43.672"
       id="path3119"
       inkscape:connector-curvature="0" />
    <path
       d="m 456.71341,518.52802 0,-36.668 107.944,-135.136 c 8.23999,-11.12399 9.888,-19.36401 9.888,-27.604 0,-9.476 -3.29601,-18.54001 -10.3,-26.368 -7.004,-8.652 -16.06802,-12.772 -27.604,-12.772 -21.83598,0 -38.72801,15.24402 -40.376,39.964 l -39.552,0 c 0,-22.65998 7.41601,-41.20002 22.66,-56.444 15.24398,-15.24399 33.37202,-23.072 53.972,-23.072 22.65997,0 42.02401,7.82801 57.268,23.072 15.24398,15.24398 23.072,34.19602 23.072,56.032 0,18.95198 -5.35601,35.02001 -16.068,48.616 l -88.992,111.24 105.06,0 0,39.14 -156.972,0"
       id="path3121"
       inkscape:connector-curvature="0" />
  </g>
</svg>
