<?xml version="1.0" encoding="UTF-8" standalone="no"?>
<!-- Created with Inkscape (http://www.inkscape.org/) -->

<svg
   xmlns:dc="http://purl.org/dc/elements/1.1/"
   xmlns:cc="http://creativecommons.org/ns#"
   xmlns:rdf="http://www.w3.org/1999/02/22-rdf-syntax-ns#"
   xmlns:svg="http://www.w3.org/2000/svg"
   xmlns="http://www.w3.org/2000/svg"
   version="1.1"
   width="851.828"
   height="851.828"
   id="svg3852">
  <metadata
     id="metadata5159">
    <rdf:RDF>
      <cc:Work
         rdf:about="">
        <dc:format>image/svg+xml</dc:format>
        <dc:type
           rdf:resource="http://purl.org/dc/dcmitype/StillImage" />
        <dc:title></dc:title>
      </cc:Work>
    </rdf:RDF>
  </metadata>
  <defs
     id="defs3854" />
  <path
     d="M 0,425.914 425.914,0 851.828,425.914 425.914,851.828 z"
     id="background"
     style="fill:#007b30;fill-opacity:1;stroke:none" />
  <path
     d="M 15.556,425.914 425.914,15.556 836.272,425.914 425.914,836.272 z"
     id="border"
     style="fill:none;stroke:#ffffff;stroke-width:20;stroke-linecap:butt;stroke-linejoin:miter;stroke-miterlimit:4;stroke-opacity:1;stroke-dasharray:none" />
  <path
     d="m 406.85774,148.721 0,34.068 25.718,0 c 12.52498,0 18.871,-8.35001 18.871,-17.869 0,-5.51099 -1.83701,-9.853 -5.511,-12.692 -3.34,-2.338 -7.51501,-3.507 -12.525,-3.507 l -26.553,0 m -16.867,96.693 0,-111.723 43.587,0 c 9.51899,0 17.034,2.50501 22.879,7.348 6.01199,5.511 11.022,13.86101 11.022,23.881 0,14.69599 -8.18302,26.38601 -21.543,31.062 l 25.885,49.432 -20.207,0 -23.046,-47.595 -21.71,0 0,47.595 -16.867,0"
     id="prefix"
     style="fill:#ffe200;stroke:none" />
  <g
     id="number"
     style="fill:#ffe200;stroke:none">
    <path
       d="m 258.5999,437.43163 0,-149.14208 147.08211,0 0,39.55149 -110.00258,0 0,62.2112 c 12.77176,-9.88769 27.60356,-14.83162 44.49542,-14.83181 10.23109,0.1461 19.63829,2.12024 28.22163,5.92242 8.58309,3.80255 15.51833,8.55765 20.80574,14.26532 3.51896,3.9227 6.67759,8.12847 9.47588,12.61734 2.79797,4.48918 5.13261,9.20995 7.00391,14.16232 3.63911,8.99535 5.42442,25.20046 5.35593,48.61537 0.008,9.66479 -0.31776,17.93901 -0.97849,24.82268 -0.66108,6.88381 -1.70823,12.48007 -3.14146,16.78878 -1.42498,4.32599 -3.21029,8.54893 -5.35593,12.66884 -2.14596,4.11999 -4.75526,8.13693 -7.8279,12.05085 -5.63075,7.167 -13.52731,13.74174 -23.6897,19.72424 -10.16265,5.98251 -22.17915,9.1583 -36.04953,9.52738 -8.84081,0.009 -17.52703,-1.34756 -26.05867,-4.06844 -8.53179,-2.72088 -17.012,-6.85799 -25.44066,-12.41135 -8.23136,-5.54475 -14.73743,-12.89198 -19.51826,-22.04172 -4.78087,-9.14967 -7.88799,-20.20485 -9.32137,-33.16557 l 39.55149,0 c 4.53188,21.7671 17.7157,32.61628 39.55149,32.54758 18.95164,4e-5 30.07549,-6.59187 33.37157,-19.77574 3.63915,-13.18376 5.42446,-26.36758 5.35593,-39.55149 0.0685,-15.72435 -2.54076,-28.35884 -7.8279,-37.90351 -5.35605,-10.23107 -16.0679,-15.31233 -32.13559,-15.24381 -15.24388,-0.0685 -27.19171,7.48472 -35.84353,22.65971 z"
       id="path3137" />
    <path
       d="m 450.66264,437.01964 74.15904,-148.3181 44.08343,0 -58.09125,116.5945 0.82399,0 c 6.17983,-2.12848 13.18373,-3.22713 21.01173,-3.29595 8.46294,0.009 16.56549,1.53656 24.30769,4.58344 7.74193,3.0472 15.0205,7.56197 21.83572,13.54432 13.52698,12.42864 20.25622,32.06704 20.18774,58.91524 -1.8e-4,32.06698 -8.65206,54.864 -25.95567,68.39112 -8.46319,6.59193 -17.38973,11.53586 -26.77965,14.83181 -9.39017,3.29596 -19.1407,4.94394 -29.25163,4.94394 -19.36382,0 -37.07958,-7.4159 -53.14731,-22.24771 -15.65583,-14.83178 -23.48372,-35.43149 -23.4837,-61.79921 -0.009,-8.46296 0.83256,-16.56552 2.52347,-24.30769 1.69087,-7.74196 4.283,-15.02052 7.7764,-21.83571 z m 68.80311,0 c -11.12394,1.2e-4 -20.59981,3.70807 -28.42763,11.12385 -7.41597,7.89667 -11.12392,19.29518 -11.12386,34.19556 -6e-5,30.14433 13.18376,45.25078 39.55149,45.31942 9.13245,0.0687 18.05899,-3.36458 26.77966,-10.29987 8.58308,-6.52319 12.84036,-18.19636 12.77183,-35.01955 -0.0688,-15.31238 -4.05141,-26.71088 -11.94785,-34.19556 -7.34734,-7.41578 -16.54855,-11.12373 -27.60364,-11.12385 z"
       id="path3139" />
  </g>
</svg>
