<?xml version="1.0" encoding="UTF-8" standalone="no"?>
<!-- Created with Inkscape (http://www.inkscape.org/) -->

<svg
   xmlns:dc="http://purl.org/dc/elements/1.1/"
   xmlns:cc="http://creativecommons.org/ns#"
   xmlns:rdf="http://www.w3.org/1999/02/22-rdf-syntax-ns#"
   xmlns:svg="http://www.w3.org/2000/svg"
   xmlns="http://www.w3.org/2000/svg"
   version="1.1"
   width="851.828"
   height="851.828"
   id="svg3852">
  <metadata
     id="metadata5159">
    <rdf:RDF>
      <cc:Work
         rdf:about="">
        <dc:format>image/svg+xml</dc:format>
        <dc:type
           rdf:resource="http://purl.org/dc/dcmitype/StillImage" />
        <dc:title></dc:title>
      </cc:Work>
    </rdf:RDF>
  </metadata>
  <defs
     id="defs3854" />
  <path
     d="M 0,425.914 425.914,0 851.828,425.914 425.914,851.828 z"
     id="background"
     style="fill:#007b30;fill-opacity:1;stroke:none" />
  <path
     d="M 15.556,425.914 425.914,15.556 836.272,425.914 425.914,836.272 z"
     id="border"
     style="fill:none;stroke:#ffffff;stroke-width:20;stroke-linecap:butt;stroke-linejoin:miter;stroke-miterlimit:4;stroke-opacity:1;stroke-dasharray:none" />
  <path
     d="m 406.85774,148.721 0,34.068 25.718,0 c 12.52498,0 18.871,-8.35001 18.871,-17.869 0,-5.51099 -1.83701,-9.853 -5.511,-12.692 -3.34,-2.338 -7.51501,-3.507 -12.525,-3.507 l -26.553,0 m -16.867,96.693 0,-111.723 43.587,0 c 9.51899,0 17.034,2.50501 22.879,7.348 6.01199,5.511 11.022,13.86101 11.022,23.881 0,14.69599 -8.18302,26.38601 -21.543,31.062 l 25.885,49.432 -20.207,0 -23.046,-47.595 -21.71,0 0,47.595 -16.867,0"
     id="prefix"
     style="fill:#ffe200;stroke:none" />
  <g
     id="number"
     style="fill:#ffe200;stroke:none">
    <path
       d="m 244.97513,523.12653 0,-37.07953 92.28681,-197.75745 44.08343,0 -93.1108,197.75745 72.09907,0 0,-79.51497 39.55149,0 0,79.51497 21.83572,0 0,37.07953 -21.83572,0 0,40.78747 -39.55149,0 0,-40.78747 z"
       id="path2987" />
    <path
       d="m 558.1643,484.81102 0,-117.00649 c -0.1718,-13.48404 -3.74241,-23.90406 -10.71186,-31.2601 -6.9697,-7.35559 -16.30823,-11.0807 -28.01564,-11.17536 -12.42859,0.0947 -21.97313,3.81977 -28.63364,11.17536 -6.66064,7.35605 -10.02526,17.77607 -10.09386,31.2601 l 0,117.00649 c 0.0686,13.4843 3.43322,23.90432 10.09386,31.26009 6.66051,7.35587 16.20505,11.08099 28.63364,11.17536 11.70741,-0.0944 21.04595,-3.8195 28.01564,-11.17536 6.96944,-7.35577 10.54006,-17.77579 10.71186,-31.26009 z m -117.00649,2.47197 0,-121.95043 c -2e-5,-12.5828 1.95695,-23.77531 5.87092,-33.57758 3.91392,-9.8018 9.78484,-18.11034 17.61277,-24.92567 15.99907,-14.00755 34.26415,-21.01145 54.7953,-21.01173 19.8443,2.8e-4 37.83472,7.00418 53.9713,21.01173 8.04233,6.81533 14.10207,15.12387 18.17927,24.92567 4.07685,9.80227 6.11966,20.99478 6.12842,33.57758 l 0,121.95043 c -0.009,12.58306 -2.05155,23.77557 -6.12842,33.57756 -4.07719,9.80207 -10.13694,18.11063 -18.17927,24.92568 -16.13659,13.6645 -34.12701,20.53107 -53.9713,20.59974 -10.11113,-0.009 -19.75866,-1.74239 -28.94264,-5.20144 -9.1841,-3.45904 -17.80165,-8.5918 -25.85266,-15.3983 -15.65582,-13.52713 -23.48371,-33.02819 -23.48369,-58.50324 z"
       id="path2989" />
  </g>
</svg>
