<?xml version="1.0" encoding="UTF-8" standalone="no"?>
<!-- Created with Inkscape (http://www.inkscape.org/) -->

<svg
   xmlns:dc="http://purl.org/dc/elements/1.1/"
   xmlns:cc="http://creativecommons.org/ns#"
   xmlns:rdf="http://www.w3.org/1999/02/22-rdf-syntax-ns#"
   xmlns:svg="http://www.w3.org/2000/svg"
   xmlns="http://www.w3.org/2000/svg"
   version="1.1"
   width="702"
   height="602"
   id="roadsign">
  <metadata
     id="metadata10">
    <rdf:RDF>
      <cc:Work
         rdf:about="">
        <dc:format>image/svg+xml</dc:format>
        <dc:type
           rdf:resource="http://purl.org/dc/dcmitype/StillImage" />
        <dc:title></dc:title>
      </cc:Work>
    </rdf:RDF>
  </metadata>
  <defs
     id="defs2989" />
  <rect
     width="702"
     height="602"
     x="0"
     y="0"
     id="background"
     style="fill:#007b30;stroke:none" />
  <rect
     width="680"
     height="580"
     rx="50"
     ry="50"
     x="11"
     y="11"
     id="border"
     style="fill:none;stroke:#ffffff;stroke-width:20" />
  <path
     d="m 331.94373,86.307 0,34.068 25.718,0 c 12.52499,0 18.871,-8.35001 18.871,-17.869 0,-5.510994 -1.837,-9.853003 -5.511,-12.692 -3.33999,-2.337998 -7.515,-3.507 -12.525,-3.507 l -26.553,0 m -16.867,96.693 0,-111.723 43.587,0 c 9.51899,0 17.03401,2.505005 22.879,7.348 6.012,5.510994 11.022,13.86101 11.022,23.881 0,14.69599 -8.18301,26.386 -21.543,31.062 l 25.885,49.432 -20.207,0 -23.046,-47.595 -21.71,0 0,47.595 -16.867,0"
     id="prefix"
     style="fill:#ffe200;stroke:none" />
  <g
     id="number"
     style="fill:#ffe200;stroke:none">
    <path
       d="m 140.9789,394.10562 0,-35.01955 13.18383,0 c 13.32106,-0.18867 23.75825,-3.82796 31.31159,-10.91787 7.55312,-7.08957 11.3984,-16.49677 11.53585,-28.22163 -0.34345,-11.57856 -4.39473,-21.07159 -12.15385,-28.47913 -7.75933,-7.40709 -17.16653,-11.2352 -28.22163,-11.48435 -8.55755,0.026 -16.47127,2.85845 -23.74119,8.4974 -7.27005,5.6394 -11.99081,13.93078 -14.16232,24.87417 l -39.551489,0 c 0.600823,-9.26967 2.901127,-18.12755 6.900917,-26.57367 3.999763,-8.44565 9.802014,-16.47953 17.406772,-24.10168 14.90043,-14.83154 32.06686,-22.24744 51.49934,-22.24771 24.71957,0.0689 44.49529,8.1715 59.32723,24.30768 14.83165,16.06803 22.24755,34.19578 22.24771,54.3833 0.20584,10.80647 -1.85413,21.12349 -6.17992,30.95111 -4.3261,9.82795 -12.15399,18.59999 -23.48369,26.31616 11.64728,7.63062 20.07599,16.78033 25.28616,27.44915 5.20985,10.66905 7.76765,21.56973 7.67341,32.70207 -0.0688,25.95572 -8.17138,46.55544 -24.30768,61.79921 -15.99926,15.17513 -35.91232,22.72836 -59.73924,22.6597 -18.19649,-0.0687 -34.95092,-6.11124 -50.26335,-18.12776 -7.424507,-5.95674 -13.484256,-13.30398 -18.179261,-22.04173 -4.695036,-8.73767 -7.973825,-18.96886 -9.836377,-30.69359 l 39.551488,0 c 3.33882,9.43301 8.19692,17.03773 14.57431,22.81419 6.37727,5.77656 15.25231,8.74635 26.62516,8.9094 11.12376,-0.11155 20.80563,-4.00833 29.04562,-11.69036 8.23977,-7.68193 12.56571,-18.47961 12.97784,-32.39308 -0.34345,-14.07639 -4.60073,-24.85691 -12.77183,-32.34158 -8.17134,-7.48445 -18.19654,-11.26107 -30.07562,-11.32985 z"
       id="path3112" />
    <path
       d="m 390.30889,439.42503 0,-117.00649 c -0.17179,-13.48404 -3.74241,-23.90406 -10.71186,-31.2601 -6.96969,-7.35559 -16.30823,-11.0807 -28.01564,-11.17535 -12.42859,0.0947 -21.97313,3.81976 -28.63364,11.17536 -6.66064,7.35604 -10.02525,17.77606 -10.09386,31.26009 l 0,117.00649 c 0.0686,13.48431 3.43322,23.90433 10.09386,31.2601 6.66051,7.35586 16.20505,11.08098 28.63364,11.17536 11.70742,-0.0944 21.04595,-3.81951 28.01564,-11.17537 6.96944,-7.35576 10.54006,-17.77578 10.71186,-31.26009 z m -117.00649,2.47197 0,-121.95043 c -2e-5,-12.58279 1.95696,-23.77531 5.87092,-33.57757 3.91393,-9.8018 9.78485,-18.11035 17.61278,-24.92567 15.99906,-14.00755 34.26414,-21.01146 54.79529,-21.01173 19.8443,2.7e-4 37.83472,7.00418 53.9713,21.01173 8.04233,6.81532 14.10208,15.12387 18.17927,24.92567 4.07686,9.80226 6.11966,20.99478 6.12842,33.57757 l 0,121.95043 c -0.009,12.58307 -2.05155,23.77557 -6.12842,33.57756 -4.07719,9.80208 -10.13694,18.11063 -18.17927,24.92569 -16.13659,13.66449 -34.12701,20.53106 -53.9713,20.59973 -10.11112,-0.009 -19.75866,-1.74239 -28.94263,-5.20143 -9.18411,-3.45904 -17.80165,-8.5918 -25.85266,-15.3983 -15.65583,-13.52713 -23.48372,-33.0282 -23.4837,-58.50325 z"
       id="path3114" />
    <path
       d="m 497.91271,319.53458 c 0.3862,13.18401 4.45464,23.07188 12.20535,29.66362 7.75058,6.59207 16.86595,9.88803 27.34614,9.88787 10.11952,1.6e-4 19.13189,-3.2958 27.03714,-9.88787 7.90502,-6.59174 12.07647,-16.47961 12.51435,-29.66362 -0.43788,-13.18362 -4.60932,-23.07148 -12.51434,-29.66362 -7.90526,-6.59168 -16.91763,-9.88764 -27.03715,-9.88787 -10.4802,2.3e-4 -19.59557,3.29619 -27.34615,9.88787 -7.75072,6.59214 -11.81916,16.48 -12.20534,29.66362 z m -44.49543,118.65447 c -0.0687,-26.77955 10.78052,-47.37926 32.54759,-61.7992 -8.3601,-7.45868 -15.02067,-15.61273 -19.98175,-24.4622 -4.96113,-8.84913 -7.50176,-19.37215 -7.6219,-31.56908 -0.009,-11.31249 1.86255,-21.64668 5.61344,-31.00262 3.75084,-9.35547 9.43293,-17.83569 17.04627,-25.44066 7.60469,-7.82763 16.0849,-13.69855 25.44067,-17.61278 9.35565,-3.91367 19.68984,-5.87064 31.0026,-5.87091 10.93492,2.7e-4 21.09744,1.95725 30.48761,5.87092 9.38992,3.91422 17.90447,9.78514 25.54367,17.61277 15.3123,15.31271 23.00286,34.12711 23.0717,56.44328 -0.14608,12.19694 -2.73821,22.71996 -7.77639,31.56909 -5.03852,8.84946 -11.64759,17.00351 -19.82725,24.46219 21.76688,14.41994 32.61606,35.01965 32.54758,61.7992 0.008,12.54874 -2.06874,23.80991 -6.23143,33.78356 -4.16303,9.97375 -10.46311,18.76296 -18.90025,26.36767 -16.1366,15.17513 -35.77499,22.72836 -58.91524,22.6597 -23.48377,0.0687 -43.25949,-7.48456 -59.32723,-22.6597 -8.23992,-7.60471 -14.41984,-16.39392 -18.53977,-26.36767 -4.11995,-9.97365 -6.17993,-21.23482 -6.17992,-33.78356 z m 39.5515,-0.412 c 0.0686,12.42858 4.46322,23.0031 13.18383,31.7236 8.58314,8.23993 19.02033,12.35987 31.31159,12.35984 11.53575,3e-5 21.83561,-4.11991 30.8996,-12.35984 4.53182,-4.30873 7.93077,-9.08099 10.19687,-14.31682 2.26584,-5.2357 3.39882,-11.03795 3.39896,-17.40678 -1.4e-4,-12.70308 -4.53208,-23.14026 -13.59583,-31.31159 -9.06399,-8.23978 -19.36385,-12.35972 -30.8996,-12.35984 -12.48867,0.24903 -22.94303,4.38614 -31.3631,12.41134 -8.42019,8.02542 -12.79763,18.44544 -13.13232,31.26009 z"
       id="path3116" />
  </g>
</svg>
