<?xml version="1.0" encoding="UTF-8" standalone="no"?>
<svg
   xmlns:dc="http://purl.org/dc/elements/1.1/"
   xmlns:cc="http://creativecommons.org/ns#"
   xmlns:rdf="http://www.w3.org/1999/02/22-rdf-syntax-ns#"
   xmlns:svg="http://www.w3.org/2000/svg"
   xmlns="http://www.w3.org/2000/svg"
   width="702"
   height="602"
   id="roadsign"
   version="1.1">
  <metadata
     id="metadata10">
    <rdf:RDF>
      <cc:Work
         rdf:about="">
        <dc:format>image/svg+xml</dc:format>
        <dc:type
           rdf:resource="http://purl.org/dc/dcmitype/StillImage" />
        <dc:title></dc:title>
      </cc:Work>
    </rdf:RDF>
  </metadata>
  <defs
     id="defs2989" />
  <rect
     y="0"
     x="0"
     height="602"
     width="702"
     id="background"
     style="fill:#007b30;stroke:none" />
  <rect
     style="fill:none;stroke:#ffffff;stroke-width:20"
     id="border"
     width="680"
     height="580"
     x="11"
     y="11"
     ry="50"
     rx="50" />
  <path
     id="prefix"
     style="fill:#ffe200;stroke:none"
     d="m 331.94373,86.307 0,34.068 25.718,0 c 12.52499,0 18.871,-8.35001 18.871,-17.869 0,-5.510994 -1.837,-9.853003 -5.511,-12.692 -3.33999,-2.337998 -7.515,-3.507 -12.525,-3.507 l -26.553,0 m -16.867,96.693 0,-111.723 43.587,0 c 9.51899,0 17.03401,2.505005 22.879,7.348 6.012,5.510994 11.022,13.86101 11.022,23.881 0,14.69599 -8.18301,26.386 -21.543,31.062 l 25.885,49.432 -20.207,0 -23.046,-47.595 -21.71,0 0,47.595 -16.867,0" />
  <g
     style="fill:#ffe200;stroke:none"
     id="number">
    <path
       d="m 120.1255,322.41602 0,-79.516 156.972,0 0,39.552 -93.524,236.076 -44.084,0 93.524,-236.076 -73.336,0 0,39.964 -39.552,0"
       id="path3092" />
    <path
       d="m 350.91631,519.35202 0,-234.428 -39.552,28.428 0,-41.612 39.552,-28.84 39.964,0 0,276.452 -39.964,0"
       id="path3094" />
    <path
       id="path3131"
       d="m 430.64089,390.15921 v -149.144 h 147.084 v 39.552 h -110.004 v 62.212 c 12.77199,-9.88799 27.60402,-14.832 44.496,-14.832 20.18798,0 38.72801,9.06401 49.028,20.188 7.00399,7.82799 12.772,16.89201 16.48,26.78 3.708,9.06399 5.356,25.13202 5.356,48.616 0,19.36398 -1.236,32.96 -4.12,41.612 -2.884,8.65199 -7.00401,16.892 -13.184,24.72 -11.12399,13.59598 -32.13603,29.252 -59.74,29.252 -17.71598,0 -34.60802,-5.35602 -51.5,-16.48 -16.47999,-11.12399 -25.956,-29.25203 -28.84,-55.208 h 39.552 c 4.532,21.83597 17.71602,32.548 39.552,32.548 18.95198,0 30.076,-6.59202 33.372,-19.776 3.708,-13.18399 5.356,-26.36802 5.356,-39.552 0,-15.65599 -2.47201,-28.42801 -7.828,-37.904 -5.35599,-10.29999 -16.06802,-15.244 -32.136,-15.244 -15.24398,0 -27.19201,7.41601 -35.844,22.66 h -37.08"
       style="fill:#ffe200;stroke:none" />
  </g>
</svg>
