<?xml version="1.0" encoding="UTF-8" standalone="no"?>
<!-- Created with Inkscape (http://www.inkscape.org/) -->

<svg
   xmlns:dc="http://purl.org/dc/elements/1.1/"
   xmlns:cc="http://creativecommons.org/ns#"
   xmlns:rdf="http://www.w3.org/1999/02/22-rdf-syntax-ns#"
   xmlns:svg="http://www.w3.org/2000/svg"
   xmlns="http://www.w3.org/2000/svg"
   version="1.1"
   width="851.828"
   height="851.828"
   id="svg3852">
  <metadata
     id="metadata5159">
    <rdf:RDF>
      <cc:Work
         rdf:about="">
        <dc:format>image/svg+xml</dc:format>
        <dc:type
           rdf:resource="http://purl.org/dc/dcmitype/StillImage" />
        <dc:title></dc:title>
      </cc:Work>
    </rdf:RDF>
  </metadata>
  <defs
     id="defs3854" />
  <path
     d="M 0,425.914 425.914,0 851.828,425.914 425.914,851.828 z"
     id="background"
     style="fill:#007b30;fill-opacity:1;stroke:none" />
  <path
     d="M 15.556,425.914 425.914,15.556 836.272,425.914 425.914,836.272 z"
     id="border"
     style="fill:none;stroke:#ffffff;stroke-width:20;stroke-linecap:butt;stroke-linejoin:miter;stroke-miterlimit:4;stroke-opacity:1;stroke-dasharray:none" />
  <path
     d="m 406.85774,148.721 0,34.068 25.718,0 c 12.52498,0 18.871,-8.35001 18.871,-17.869 0,-5.51099 -1.83701,-9.853 -5.511,-12.692 -3.34,-2.338 -7.51501,-3.507 -12.525,-3.507 l -26.553,0 m -16.867,96.693 0,-111.723 43.587,0 c 9.51899,0 17.034,2.50501 22.879,7.348 6.01199,5.511 11.022,13.86101 11.022,23.881 0,14.69599 -8.18302,26.38601 -21.543,31.062 l 25.885,49.432 -20.207,0 -23.046,-47.595 -21.71,0 0,47.595 -16.867,0"
     id="prefix"
     style="fill:#ffe200;stroke:none" />
  <g
     id="number"
     style="fill:#ffe200;stroke:none">
    <path
       d="m 260.21893,367.80453 0,-79.51498 156.96998,0 0,39.55149 -93.5228,236.07296 -44.08343,0 93.5228,-236.07296 -73.33506,0 0,39.96349 z"
       id="path3033" />
    <path
       d="m 438.68584,563.914 0,-36.66753 107.94261,-135.13426 c 4.01682,-5.50167 6.69478,-10.46277 8.03389,-14.88331 1.33885,-4.42017 1.95684,-8.66027 1.85398,-12.72033 0.008,-4.75491 -0.83271,-9.35551 -2.52348,-13.80183 -1.69102,-4.44589 -4.28315,-8.6345 -7.77639,-12.56583 -6.93536,-8.58299 -16.13656,-12.84027 -27.60364,-12.77184 -11.13253,0.12041 -20.38524,3.69102 -27.75815,10.71186 -7.37305,7.0213 -11.57882,16.77183 -12.61733,29.25163 l -39.55149,0 c -0.009,-11.31248 1.86255,-21.64668 5.61343,-31.00261 3.75085,-9.35548 9.43294,-17.83569 17.04628,-25.44067 15.31241,-15.3122 33.30283,-23.00276 53.9713,-23.0717 11.34692,0.009 21.81844,1.94867 31.4146,5.81943 9.59591,3.8713 18.21346,9.62205 25.85266,17.25227 7.63033,7.63932 13.38109,16.15386 17.25228,25.54368 3.87086,9.39027 5.81067,19.55279 5.81943,30.4876 -1.7e-4,18.88328 -5.3561,35.08839 -16.0678,48.61538 l -88.99085,111.23857 105.05865,0 0,39.13949 z"
       id="path3035" />
  </g>
</svg>
