<?xml version="1.0" encoding="UTF-8" standalone="no"?>
<!-- Created with Inkscape (http://www.inkscape.org/) -->

<svg
   xmlns:dc="http://purl.org/dc/elements/1.1/"
   xmlns:cc="http://creativecommons.org/ns#"
   xmlns:rdf="http://www.w3.org/1999/02/22-rdf-syntax-ns#"
   xmlns:svg="http://www.w3.org/2000/svg"
   xmlns="http://www.w3.org/2000/svg"
   version="1.1"
   width="851.828"
   height="851.828"
   id="svg3852">
  <metadata
     id="metadata5159">
    <rdf:RDF>
      <cc:Work
         rdf:about="">
        <dc:format>image/svg+xml</dc:format>
        <dc:type
           rdf:resource="http://purl.org/dc/dcmitype/StillImage" />
        <dc:title></dc:title>
      </cc:Work>
    </rdf:RDF>
  </metadata>
  <defs
     id="defs3854" />
  <path
     d="M 0,425.914 425.914,0 851.828,425.914 425.914,851.828 z"
     id="background"
     style="fill:#007b30;fill-opacity:1;stroke:none" />
  <path
     d="M 15.556,425.914 425.914,15.556 836.272,425.914 425.914,836.272 z"
     id="border"
     style="fill:none;stroke:#ffffff;stroke-width:20;stroke-linecap:butt;stroke-linejoin:miter;stroke-miterlimit:4;stroke-opacity:1;stroke-dasharray:none" />
  <path
     d="m 406.85774,148.721 0,34.068 25.718,0 c 12.52498,0 18.871,-8.35001 18.871,-17.869 0,-5.51099 -1.83701,-9.853 -5.511,-12.692 -3.34,-2.338 -7.51501,-3.507 -12.525,-3.507 l -26.553,0 m -16.867,96.693 0,-111.723 43.587,0 c 9.51899,0 17.034,2.50501 22.879,7.348 6.01199,5.511 11.022,13.86101 11.022,23.881 0,14.69599 -8.18302,26.38601 -21.543,31.062 l 25.885,49.432 -20.207,0 -23.046,-47.595 -21.71,0 0,47.595 -16.867,0"
     id="prefix"
     style="fill:#ffe200;stroke:none" />
  <g
     id="number"
     style="fill:#ffe200;stroke:none">
    <path
       d="m 264.77982,437.01964 74.15905,-148.3181 44.08343,0 -58.09125,116.5945 0.82399,0 c 6.17983,-2.12848 13.18373,-3.22713 21.01173,-3.29595 8.46293,0.009 16.56549,1.53656 24.30769,4.58344 7.74193,3.0472 15.02049,7.56197 21.83571,13.54432 13.52699,12.42864 20.25623,32.06704 20.18774,58.91524 -1.7e-4,32.06698 -8.65205,54.864 -25.95566,68.39112 -8.46319,6.59193 -17.38974,11.53586 -26.77966,14.83181 -9.39016,3.29596 -19.14069,4.94394 -29.25162,4.94394 -19.36382,0 -37.07958,-7.4159 -53.14732,-22.24771 -15.65582,-14.83178 -23.48371,-35.43149 -23.48369,-61.79921 -0.009,-8.46296 0.83256,-16.56552 2.52347,-24.30769 1.69087,-7.74196 4.283,-15.02052 7.77639,-21.83571 z m 68.80312,0 c -11.12394,1.2e-4 -20.59981,3.70807 -28.42764,11.12385 -7.41596,7.89667 -11.12391,19.29518 -11.12385,34.19556 -6e-5,30.14433 13.18376,45.25078 39.55149,45.31942 9.13245,0.0687 18.05899,-3.36458 26.77965,-10.29987 8.58309,-6.52319 12.84037,-18.19636 12.77184,-35.01955 -0.0688,-15.31238 -4.05141,-26.71088 -11.94785,-34.19556 -7.34735,-7.41578 -16.54855,-11.12373 -27.60364,-11.12385 z"
       id="path2987" />
    <path
       d="m 559.37133,484.81102 0,-117.00649 c -0.17179,-13.48404 -3.74241,-23.90406 -10.71186,-31.2601 -6.9697,-7.35559 -16.30823,-11.0807 -28.01564,-11.17536 -12.42859,0.0947 -21.97313,3.81977 -28.63364,11.17536 -6.66064,7.35605 -10.02526,17.77607 -10.09386,31.2601 l 0,117.00649 c 0.0686,13.4843 3.43322,23.90432 10.09386,31.26009 6.66051,7.35587 16.20505,11.08099 28.63364,11.17536 11.70742,-0.0944 21.04595,-3.8195 28.01564,-11.17536 6.96944,-7.35577 10.54006,-17.77579 10.71186,-31.26009 z m -117.00649,2.47197 0,-121.95043 c -2e-5,-12.5828 1.95695,-23.77531 5.87092,-33.57758 3.91393,-9.8018 9.78484,-18.11034 17.61277,-24.92567 15.99907,-14.00755 34.26415,-21.01145 54.7953,-21.01173 19.8443,2.8e-4 37.83472,7.00418 53.9713,21.01173 8.04233,6.81533 14.10208,15.12387 18.17927,24.92567 4.07686,9.80227 6.11966,20.99478 6.12842,33.57758 l 0,121.95043 c -0.009,12.58306 -2.05155,23.77557 -6.12842,33.57756 -4.07719,9.80207 -10.13694,18.11063 -18.17927,24.92568 -16.13659,13.6645 -34.12701,20.53107 -53.9713,20.59974 -10.11112,-0.009 -19.75866,-1.74239 -28.94263,-5.20144 -9.18411,-3.45904 -17.80165,-8.5918 -25.85267,-15.3983 -15.65582,-13.52713 -23.48371,-33.02819 -23.48369,-58.50324 z"
       id="path2989" />
  </g>
</svg>
