<?xml version="1.0" encoding="UTF-8" standalone="no"?>
<!-- Created with Inkscape (http://www.inkscape.org/) -->

<svg
   xmlns:dc="http://purl.org/dc/elements/1.1/"
   xmlns:cc="http://creativecommons.org/ns#"
   xmlns:rdf="http://www.w3.org/1999/02/22-rdf-syntax-ns#"
   xmlns:svg="http://www.w3.org/2000/svg"
   xmlns="http://www.w3.org/2000/svg"
   version="1.1"
   width="851.828"
   height="851.828"
   id="svg3852">
  <metadata
     id="metadata5159">
    <rdf:RDF>
      <cc:Work
         rdf:about="">
        <dc:format>image/svg+xml</dc:format>
        <dc:type
           rdf:resource="http://purl.org/dc/dcmitype/StillImage" />
        <dc:title></dc:title>
      </cc:Work>
    </rdf:RDF>
  </metadata>
  <defs
     id="defs3854" />
  <path
     d="M 0,425.914 425.914,0 851.828,425.914 425.914,851.828 z"
     id="background"
     style="fill:#007b30;fill-opacity:1;stroke:none" />
  <path
     d="M 15.556,425.914 425.914,15.556 836.272,425.914 425.914,836.272 z"
     id="border"
     style="fill:none;stroke:#ffffff;stroke-width:20;stroke-linecap:butt;stroke-linejoin:miter;stroke-miterlimit:4;stroke-opacity:1;stroke-dasharray:none" />
  <path
     d="m 406.85774,148.721 0,34.068 25.718,0 c 12.52498,0 18.871,-8.35001 18.871,-17.869 0,-5.51099 -1.83701,-9.853 -5.511,-12.692 -3.34,-2.338 -7.51501,-3.507 -12.525,-3.507 l -26.553,0 m -16.867,96.693 0,-111.723 43.587,0 c 9.51899,0 17.034,2.50501 22.879,7.348 6.01199,5.511 11.022,13.86101 11.022,23.881 0,14.69599 -8.18302,26.38601 -21.543,31.062 l 25.885,49.432 -20.207,0 -23.046,-47.595 -21.71,0 0,47.595 -16.867,0"
     id="prefix"
     style="fill:#ffe200;stroke:none" />
  <g
     id="number"
     style="fill:#ffe200;stroke:none">
    <path
       d="m 263.57279,437.01964 74.15905,-148.3181 44.08343,0 -58.09125,116.5945 0.82399,0 c 6.17982,-2.12848 13.18373,-3.22713 21.01173,-3.29595 8.46293,0.009 16.56549,1.53656 24.30768,4.58344 7.74194,3.0472 15.0205,7.56197 21.83572,13.54432 13.52699,12.42864 20.25623,32.06704 20.18774,58.91524 -1.7e-4,32.06698 -8.65205,54.864 -25.95566,68.39112 -8.4632,6.59193 -17.38974,11.53586 -26.77966,14.83181 -9.39016,3.29596 -19.14069,4.94394 -29.25162,4.94394 -19.36383,0 -37.07958,-7.4159 -53.14732,-22.24771 -15.65582,-14.83178 -23.48371,-35.43149 -23.4837,-61.79921 -0.009,-8.46296 0.83257,-16.56552 2.52348,-24.30769 1.69087,-7.74196 4.283,-15.02052 7.77639,-21.83571 z m 68.80312,0 c -11.12394,1.2e-4 -20.59981,3.70807 -28.42764,11.12385 -7.41596,7.89667 -11.12391,19.29518 -11.12385,34.19556 -6e-5,30.14433 13.18376,45.25078 39.55149,45.31942 9.13245,0.0687 18.05899,-3.36458 26.77965,-10.29987 8.58309,-6.52319 12.84036,-18.19636 12.77184,-35.01955 -0.0688,-15.31238 -4.05141,-26.71088 -11.94785,-34.19556 -7.34735,-7.41578 -16.54855,-11.12373 -27.60364,-11.12385 z"
       id="path3202" />
    <path
       d="m 589.0639,416.4199 -74.15904,148.73009 -44.08344,0 58.09126,-116.5945 -0.82399,0 c -6.66068,2.12875 -13.52725,3.2274 -20.59974,3.29595 -17.23517,-0.0686 -32.61629,-6.11113 -46.1434,-18.12776 -6.59195,-5.95663 -11.53588,-13.81885 -14.83181,-23.5867 -3.29598,-9.76755 -4.94396,-21.54372 -4.94394,-35.32854 -2e-5,-31.72337 8.23987,-54.38306 24.71968,-67.97913 16.96039,-13.66422 35.77479,-20.53079 56.44327,-20.59973 19.36364,-0.0684 37.07939,7.48484 53.14732,22.6597 16.13629,15.31271 24.23884,35.77509 24.30769,61.38721 -1.8e-4,17.2353 -3.70813,32.61642 -11.12386,46.14341 z m -68.39112,0 c 10.6431,-0.0685 19.8443,-3.63913 27.60365,-10.71186 7.89643,-7.00375 11.87904,-18.53959 11.94784,-34.60756 -1.3e-4,-30.14406 -13.18395,-45.25051 -39.55149,-45.31941 -9.13263,0.0689 -18.05917,3.63952 -26.77965,10.71186 -8.58329,7.00413 -12.84056,18.53997 -12.77184,34.60755 -5e-5,16.06797 3.70789,27.60381 11.12386,34.60756 7.82782,7.07272 17.30369,10.64334 28.42763,10.71186 z"
       id="path3204" />
  </g>
</svg>
