<?xml version="1.0" encoding="UTF-8" standalone="no"?>
<!-- Created with Inkscape (http://www.inkscape.org/) -->

<svg
   xmlns:dc="http://purl.org/dc/elements/1.1/"
   xmlns:cc="http://creativecommons.org/ns#"
   xmlns:rdf="http://www.w3.org/1999/02/22-rdf-syntax-ns#"
   xmlns:svg="http://www.w3.org/2000/svg"
   xmlns="http://www.w3.org/2000/svg"
   xmlns:sodipodi="http://sodipodi.sourceforge.net/DTD/sodipodi-0.dtd"
   xmlns:inkscape="http://www.inkscape.org/namespaces/inkscape"
   width="702"
   height="602"
   id="roadsign"
   version="1.1"
   inkscape:version="0.48.4 r9939"
   sodipodi:docname="SA_road_R508.svg">
  <metadata
     id="metadata10">
    <rdf:RDF>
      <cc:Work
         rdf:about="">
        <dc:format>image/svg+xml</dc:format>
        <dc:type
           rdf:resource="http://purl.org/dc/dcmitype/StillImage" />
      </cc:Work>
    </rdf:RDF>
  </metadata>
  <defs
     id="defs2989" />
  <sodipodi:namedview
     id="base"
     pagecolor="#ffffff"
     bordercolor="#666666"
     borderopacity="1.0"
     inkscape:pageopacity="0.0"
     inkscape:pageshadow="2"
     inkscape:zoom="1.0813953"
     inkscape:cx="351"
     inkscape:cy="301"
     inkscape:document-units="px"
     inkscape:current-layer="roadsign"
     showgrid="false"
     inkscape:window-width="1920"
     inkscape:window-height="1030"
     inkscape:window-x="0"
     inkscape:window-y="0"
     inkscape:window-maximized="1" />
  <rect
     y="0"
     x="0"
     height="602"
     width="702"
     id="background"
     style="fill:#007b30;stroke:none" />
  <rect
     style="fill:none;stroke:#ffffff;stroke-width:20"
     id="border"
     width="680"
     height="580"
     x="11"
     y="11"
     ry="50"
     rx="50" />
  <path
     id="prefix"
     style="fill:#ffe200;stroke:none"
     d="m 331.94373,86.307 0,34.068 25.718,0 c 12.52499,0 18.871,-8.35001 18.871,-17.869 0,-5.510994 -1.837,-9.853003 -5.511,-12.692 -3.33999,-2.337998 -7.515,-3.507 -12.525,-3.507 l -26.553,0 m -16.867,96.693 0,-111.723 43.587,0 c 9.51899,0 17.03401,2.505005 22.879,7.348 6.012,5.510994 11.022,13.86101 11.022,23.881 0,14.69599 -8.18301,26.386 -21.543,31.062 l 25.885,49.432 -20.207,0 -23.046,-47.595 -21.71,0 0,47.595 -16.867,0"
     inkscape:connector-curvature="0" />
  <g
     style="fill:#ffe200;stroke:none"
     id="number">
    <path
       d="m 91.951781,392.04402 0,-149.144 147.083999,0 0,39.552 -110.004,0 0,62.212 c 12.77199,-9.88799 27.60402,-14.832 44.496,-14.832 20.18798,0 38.72801,9.06401 49.028,20.188 7.00399,7.82799 12.772,16.89201 16.48,26.78 3.708,9.06399 5.356,25.13202 5.356,48.616 0,19.36398 -1.236,32.96 -4.12,41.612 -2.884,8.65199 -7.004,16.892 -13.184,24.72 -11.12399,13.59598 -32.13603,29.252 -59.74,29.252 -17.71598,0 -34.60802,-5.35602 -51.5,-16.48 -16.479982,-11.12399 -25.956002,-29.25203 -28.839999,-55.208 l 39.551999,0 c 4.532,21.83597 17.71602,32.548 39.552,32.548 18.95198,0 30.076,-6.59202 33.372,-19.776 3.708,-13.18399 5.356,-26.36802 5.356,-39.552 0,-15.65599 -2.472,-28.42801 -7.828,-37.904 -5.35599,-10.29999 -16.06801,-15.244 -32.136,-15.244 -15.24398,0 -27.19201,7.41601 -35.844,22.66 l -37.079999,0"
       id="path3124"
       inkscape:connector-curvature="0" />
    <path
       d="m 390.31059,439.42402 0,-117.008 c 0,-26.77998 -15.65602,-42.436 -38.728,-42.436 -24.71997,0 -38.728,15.65602 -38.728,42.436 l 0,117.008 c 0,26.77997 14.00803,42.436 38.728,42.436 23.07198,0 38.728,-15.65603 38.728,-42.436 m -117.008,2.472 0,-121.952 c 0,-25.13198 7.82802,-44.90802 23.484,-58.504 16.06799,-14.00799 34.19602,-21.012 54.796,-21.012 19.77598,0 37.90402,7.00401 53.972,21.012 16.06799,13.59598 24.308,33.37202 24.308,58.504 l 0,121.952 c 0,25.13197 -8.24001,44.90801 -24.308,58.504 -16.06798,13.59598 -34.19602,20.6 -53.972,20.6 -20.18798,0 -38.72801,-7.00402 -54.796,-20.6 -15.65598,-13.59599 -23.484,-32.96003 -23.484,-58.504"
       id="path3126"
       inkscape:connector-curvature="0" />
    <path
       d="m 497.91341,319.53202 c 0,26.36797 19.36402,39.552 39.552,39.552 19.36398,0 39.552,-13.18403 39.552,-39.552 0,-26.36798 -20.18802,-39.552 -39.552,-39.552 -20.18798,0 -39.552,13.18402 -39.552,39.552 m -44.496,118.656 c 0,-26.77998 10.71202,-47.38002 32.548,-61.8 -16.47999,-15.24399 -27.604,-31.31203 -27.604,-56.032 0,-22.65998 7.41601,-41.20002 22.66,-56.444 15.24398,-15.65599 33.78402,-23.484 56.444,-23.484 21.83597,0 40.78801,7.82801 56.032,23.484 15.24398,15.24398 23.072,34.19602 23.072,56.444 0,24.71997 -11.53602,40.78801 -27.604,56.032 21.83597,14.41998 32.548,35.02002 32.548,61.8 0,25.13197 -8.24002,44.90801 -25.132,60.152 -16.06799,15.24398 -35.84403,22.66 -58.916,22.66 -23.48398,0 -43.26002,-7.41602 -59.328,-22.66 -16.47999,-15.24399 -24.72,-35.02003 -24.72,-60.152 m 39.552,-0.412 c 0,12.35998 4.532,23.072 13.184,31.724 8.65199,8.23999 18.95201,12.36 31.312,12.36 11.53598,0 21.83601,-4.12001 30.9,-12.36 9.06399,-8.652 13.596,-18.95202 13.596,-31.724 0,-12.77199 -4.53201,-23.07201 -13.596,-31.312 -9.06399,-8.24 -19.36402,-12.36 -30.9,-12.36 -24.30798,0 -44.496,18.54002 -44.496,43.672"
       id="path3128"
       inkscape:connector-curvature="0" />
  </g>
</svg>
