<?xml version="1.0" encoding="UTF-8" standalone="no"?>
<!-- Created with Inkscape (http://www.inkscape.org/) -->

<svg
   xmlns:dc="http://purl.org/dc/elements/1.1/"
   xmlns:cc="http://creativecommons.org/ns#"
   xmlns:rdf="http://www.w3.org/1999/02/22-rdf-syntax-ns#"
   xmlns:svg="http://www.w3.org/2000/svg"
   xmlns="http://www.w3.org/2000/svg"
   version="1.1"
   width="851.828"
   height="851.828"
   id="svg3852">
  <metadata
     id="metadata5159">
    <rdf:RDF>
      <cc:Work
         rdf:about="">
        <dc:format>image/svg+xml</dc:format>
        <dc:type
           rdf:resource="http://purl.org/dc/dcmitype/StillImage" />
        <dc:title></dc:title>
      </cc:Work>
    </rdf:RDF>
  </metadata>
  <defs
     id="defs3854" />
  <path
     d="M 0,425.914 425.914,0 851.828,425.914 425.914,851.828 z"
     id="background"
     style="fill:#007b30;fill-opacity:1;stroke:none" />
  <path
     d="M 15.556,425.914 425.914,15.556 836.272,425.914 425.914,836.272 z"
     id="border"
     style="fill:none;stroke:#ffffff;stroke-width:20;stroke-linecap:butt;stroke-linejoin:miter;stroke-miterlimit:4;stroke-opacity:1;stroke-dasharray:none" />
  <path
     d="m 406.85774,148.721 0,34.068 25.718,0 c 12.52498,0 18.871,-8.35001 18.871,-17.869 0,-5.51099 -1.83701,-9.853 -5.511,-12.692 -3.34,-2.338 -7.51501,-3.507 -12.525,-3.507 l -26.553,0 m -16.867,96.693 0,-111.723 43.587,0 c 9.51899,0 17.034,2.50501 22.879,7.348 6.01199,5.511 11.022,13.86101 11.022,23.881 0,14.69599 -8.18302,26.38601 -21.543,31.062 l 25.885,49.432 -20.207,0 -23.046,-47.595 -21.71,0 0,47.595 -16.867,0"
     id="prefix"
     style="fill:#ffe200;stroke:none" />
  <g
     id="number"
     style="fill:#ffe200;stroke:none">
    <path
       d="m 251.59616,563.914 0,-36.668 107.944,-135.136 c 8.23999,-11.12399 9.888,-19.36401 9.888,-27.604 0,-9.47599 -3.29601,-18.54001 -10.3,-26.368 -7.004,-8.65199 -16.06801,-12.772 -27.604,-12.772 -21.83598,0 -38.728,15.24403 -40.376,39.964 l -39.552,0 c 0,-22.65998 7.41601,-41.20001 22.66,-56.444 15.24398,-15.24398 33.37202,-23.072 53.972,-23.072 22.65998,0 42.02401,7.82802 57.268,23.072 15.24398,15.24399 23.072,34.19602 23.072,56.032 0,18.95198 -5.35601,35.02002 -16.068,48.616 l -88.992,111.24 105.06,0 0,39.14 -156.972,0"
       id="path3086" />
    <path
       d="m 450.66297,437.018 74.16,-148.32 44.084,0 -58.092,116.596 0.824,0 c 6.17999,-2.06 13.18401,-3.296 21.012,-3.296 16.89198,0 32.54801,6.18001 46.144,18.128 13.59599,12.35999 20.188,32.13603 20.188,58.916 0,32.13597 -8.65202,54.79602 -25.956,68.392 -16.89198,13.18399 -35.84402,19.776 -56.032,19.776 -19.36398,0 -37.08002,-7.41601 -53.148,-22.248 -15.65598,-14.83198 -23.484,-35.43202 -23.484,-61.8 0,-16.89198 3.29601,-32.54801 10.3,-46.144 m 68.804,0 c -11.12399,0 -20.60001,3.70801 -28.428,11.124 -7.41599,7.82799 -11.124,19.36402 -11.124,34.196 0,30.07597 13.18403,45.32 39.552,45.32 9.06399,0 18.12801,-3.29601 26.78,-10.3 8.65199,-6.59199 12.772,-18.12802 12.772,-35.02 0,-15.24398 -4.12001,-26.78001 -11.948,-34.196 -7.41599,-7.41599 -16.48001,-11.124 -27.604,-11.124"
       id="path3088" />
  </g>
</svg>
