<?xml version="1.0" encoding="UTF-8" standalone="no"?>
<!-- Created with Inkscape (http://www.inkscape.org/) -->

<svg
   width="702"
   height="602"
   id="roadsign"
   version="1.1"
   xmlns="http://www.w3.org/2000/svg"
   xmlns:svg="http://www.w3.org/2000/svg"
>
  <rect
     y="0"
     x="0"
     height="602"
     width="702"
     id="background"
     style="fill:#007b30;stroke:none" />
  <rect
     style="fill:none;stroke:#ffffff;stroke-width:20"
     id="border"
     width="680"
     height="580"
     x="11"
     y="11"
     ry="50"
     rx="50" />
  <path
     id="prefix"
     style="fill:#ffe200;stroke:none"
     d="m 331.94373,86.307 0,34.068 25.718,0 c 12.52499,0 18.871,-8.35001 18.871,-17.869 0,-5.510994 -1.837,-9.853003 -5.511,-12.692 -3.33999,-2.337998 -7.515,-3.507 -12.525,-3.507 l -26.553,0 m -16.867,96.693 0,-111.723 43.587,0 c 9.51899,0 17.03401,2.505005 22.879,7.348 6.012,5.510994 11.022,13.86101 11.022,23.881 0,14.69599 -8.18301,26.386 -21.543,31.062 l 25.885,49.432 -20.207,0 -23.046,-47.595 -21.71,0 0,47.595 -16.867,0" />
  <g
     id="text7914"
     style="fill:#ffe200;"
     transform="translate(-1.030011)">
    <path
       d="m 92.264152,392.04402 v -149.144 H 239.34815 v 39.552 h -110.004 v 62.212 q 18.952,-14.832 44.496,-14.832 15.244,0 28.016,6.18 13.184,5.768 21.012,14.008 11.124,12.36 16.48,26.78 5.356,14.008 5.356,48.616 0,28.016 -4.12,41.612 -4.12,13.184 -13.184,24.72 -8.24,10.3 -23.896,19.776 -15.244,9.476 -35.844,9.476 -26.368,0 -51.5,-16.48 -24.719998,-16.48 -28.839998,-55.208 h 39.551998 q 7.004,32.548 39.552,32.548 28.428,0 33.372,-19.776 5.356,-20.188 5.356,-39.552 0,-23.072 -7.828,-37.904 -7.828,-15.244 -32.136,-15.244 -23.072,0 -35.844,22.66 z"
       id="path76920" />
    <path
       d="m 312.68401,319.53202 q 0,19.364 11.948,29.664 12.36,9.888 27.604,9.888 14.832,0 27.192,-9.888 12.36,-10.3 12.36,-29.664 0,-19.364 -12.36,-29.252 -12.36,-10.3 -27.192,-10.3 -15.244,0 -27.604,10.3 -11.948,9.888 -11.948,29.252 z m -44.496,118.656 q 0,-40.376 32.548,-61.8 -12.36,-11.536 -20.188,-24.72 -7.416,-13.184 -7.416,-31.312 0,-33.372 22.66,-56.444 22.66,-23.484 56.444,-23.484 33.372,0 56.032,23.484 23.072,23.072 23.072,56.444 0,18.128 -7.828,31.312 -7.828,13.184 -19.776,24.72 32.548,21.424 32.548,61.8 0,37.08 -25.132,60.152 -24.72,22.66 -58.916,22.66 -34.608,0 -59.328,-22.66 -24.72,-23.072 -24.72,-60.152 z m 39.552,-0.412 q 0,18.952 13.184,31.724 13.184,12.36 31.312,12.36 17.304,0 30.9,-12.36 13.596,-12.772 13.596,-31.724 0,-18.952 -13.596,-31.312 -13.596,-12.36 -30.9,-12.36 -18.128,0 -31.312,12.36 -13.184,12.36 -13.184,31.312 z"
       id="path76922" />
    <path
       d="m 577.18787,439.42402 v -117.008 q 0,-20.188 -10.712,-31.312 -10.712,-11.124 -28.016,-11.124 -18.128,0 -28.428,11.124 -10.3,11.124 -10.3,31.312 v 117.008 q 0,20.188 10.3,31.312 10.3,11.124 28.428,11.124 17.304,0 28.016,-11.124 10.712,-11.124 10.712,-31.312 z m -117.008,2.472 v -121.952 q 0,-37.904 23.484,-58.504 23.896,-21.012 54.796,-21.012 30.076,0 53.972,21.012 24.308,20.6 24.308,58.504 v 121.952 q 0,37.904 -24.308,58.504 -23.896,20.6 -53.972,20.6 -30.9,0 -54.796,-20.6 -23.484,-20.6 -23.484,-58.504 z"
       id="path76924" />
  </g>
</svg>
