<?xml version="1.0" encoding="UTF-8" standalone="no"?>
<!-- Created with Inkscape (http://www.inkscape.org/) -->

<svg
   xmlns:dc="http://purl.org/dc/elements/1.1/"
   xmlns:cc="http://creativecommons.org/ns#"
   xmlns:rdf="http://www.w3.org/1999/02/22-rdf-syntax-ns#"
   xmlns:svg="http://www.w3.org/2000/svg"
   xmlns="http://www.w3.org/2000/svg"
   version="1.1"
   width="851.828"
   height="851.828"
   id="svg3852">
  <metadata
     id="metadata5159">
    <rdf:RDF>
      <cc:Work
         rdf:about="">
        <dc:format>image/svg+xml</dc:format>
        <dc:type
           rdf:resource="http://purl.org/dc/dcmitype/StillImage" />
        <dc:title></dc:title>
      </cc:Work>
    </rdf:RDF>
  </metadata>
  <defs
     id="defs3854" />
  <path
     d="M 0,425.914 425.914,0 851.828,425.914 425.914,851.828 z"
     id="background"
     style="fill:#007b30;fill-opacity:1;stroke:none" />
  <path
     d="M 15.556,425.914 425.914,15.556 836.272,425.914 425.914,836.272 z"
     id="border"
     style="fill:none;stroke:#ffffff;stroke-width:20;stroke-linecap:butt;stroke-linejoin:miter;stroke-miterlimit:4;stroke-opacity:1;stroke-dasharray:none" />
  <path
     d="m 406.85774,148.721 0,34.068 25.718,0 c 12.52498,0 18.871,-8.35001 18.871,-17.869 0,-5.51099 -1.83701,-9.853 -5.511,-12.692 -3.34,-2.338 -7.51501,-3.507 -12.525,-3.507 l -26.553,0 m -16.867,96.693 0,-111.723 43.587,0 c 9.51899,0 17.034,2.50501 22.879,7.348 6.01199,5.511 11.022,13.86101 11.022,23.881 0,14.69599 -8.18302,26.38601 -21.543,31.062 l 25.885,49.432 -20.207,0 -23.046,-47.595 -21.71,0 0,47.595 -16.867,0"
     id="prefix"
     style="fill:#ffe200;stroke:none" />
  <g
     id="number"
     style="fill:#ffe200;stroke:none">
    <path
       d="m 321.76421,364.92056 c 0.3862,13.18402 4.45465,23.07188 12.20535,29.66362 7.75058,6.59208 16.86595,9.88803 27.34614,9.88787 10.11952,1.6e-4 19.13189,-3.29579 27.03715,-9.88787 7.90501,-6.59174 12.07646,-16.4796 12.51434,-29.66362 -0.43788,-13.18361 -4.60932,-23.07148 -12.51434,-29.66361 -7.90526,-6.59168 -16.91763,-9.88764 -27.03715,-9.88788 -10.4802,2.4e-4 -19.59557,3.2962 -27.34615,9.88788 -7.75072,6.59213 -11.81916,16.48 -12.20534,29.66361 z m -44.49542,118.65448 c -0.0687,-26.77955 10.78051,-47.37927 32.54758,-61.79921 -8.3601,-7.45867 -15.02067,-15.61273 -19.98175,-24.46219 -4.96113,-8.84913 -7.50175,-19.37215 -7.6219,-31.56909 -0.009,-11.31248 1.86255,-21.64667 5.61344,-31.00261 3.75085,-9.35548 9.43293,-17.83569 17.04627,-25.44066 7.60469,-7.82764 16.0849,-13.69856 25.44067,-17.61278 9.35565,-3.91368 19.68984,-5.87065 31.0026,-5.87092 10.93492,2.8e-4 21.09745,1.95725 30.48761,5.87093 9.38992,3.91421 17.90447,9.78513 25.54367,17.61277 15.3123,15.3127 23.00286,34.12711 23.07171,56.44327 -0.14609,12.19695 -2.73822,22.71997 -7.7764,31.56909 -5.03852,8.84946 -11.64759,17.00352 -19.82725,24.46219 21.76688,14.41994 32.61607,35.01966 32.54758,61.79921 0.008,12.54873 -2.06874,23.80991 -6.23143,33.78356 -4.16303,9.97375 -10.46311,18.76296 -18.90024,26.36766 -16.1366,15.17514 -35.775,22.72837 -58.91525,22.65971 -23.48376,0.0687 -43.25949,-7.48456 -59.32723,-22.65971 -8.23992,-7.6047 -14.41984,-16.39391 -18.53976,-26.36766 -4.11996,-9.97365 -6.17993,-21.23483 -6.17992,-33.78356 z m 39.55149,-0.412 c 0.0686,12.42858 4.46322,23.0031 13.18383,31.72359 8.58314,8.23994 19.02033,12.35988 31.31159,12.35984 11.53575,4e-5 21.83561,-4.1199 30.89961,-12.35984 4.53181,-4.30872 7.93076,-9.08099 10.19686,-14.31681 2.26584,-5.2357 3.39882,-11.03796 3.39896,-17.40678 -1.4e-4,-12.70308 -4.53207,-23.14027 -13.59582,-31.3116 -9.064,-8.23977 -19.36386,-12.35971 -30.89961,-12.35984 -12.48867,0.24904 -22.94303,4.38615 -31.3631,12.41135 -8.42019,8.02542 -12.79763,18.44544 -13.13232,31.26009 z"
       id="path3171" />
    <path
       d="m 518.77088,564.73799 0,-234.42498 -39.55149,28.42763 0,-41.61146 39.55149,-28.83963 39.96349,0 0,276.44844 z"
       id="path3173" />
  </g>
</svg>
