<?xml version="1.0" encoding="UTF-8" standalone="no"?>
<!-- Created with Inkscape (http://www.inkscape.org/) -->

<svg
   xmlns:dc="http://purl.org/dc/elements/1.1/"
   xmlns:cc="http://creativecommons.org/ns#"
   xmlns:rdf="http://www.w3.org/1999/02/22-rdf-syntax-ns#"
   xmlns:svg="http://www.w3.org/2000/svg"
   xmlns="http://www.w3.org/2000/svg"
   version="1.1"
   width="702"
   height="602"
   id="roadsign">
  <metadata
     id="metadata10">
    <rdf:RDF>
      <cc:Work
         rdf:about="">
        <dc:format>image/svg+xml</dc:format>
        <dc:type
           rdf:resource="http://purl.org/dc/dcmitype/StillImage" />
        <dc:title></dc:title>
      </cc:Work>
    </rdf:RDF>
  </metadata>
  <defs
     id="defs2989" />
  <rect
     width="702"
     height="602"
     x="0"
     y="0"
     id="background"
     style="fill:#007b30;stroke:none" />
  <rect
     width="680"
     height="580"
     rx="50"
     ry="50"
     x="11"
     y="11"
     id="border"
     style="fill:none;stroke:#ffffff;stroke-width:20" />
  <path
     d="m 331.94373,86.307 0,34.068 25.718,0 c 12.52499,0 18.871,-8.35001 18.871,-17.869 0,-5.510994 -1.837,-9.853003 -5.511,-12.692 -3.33999,-2.337998 -7.515,-3.507 -12.525,-3.507 l -26.553,0 m -16.867,96.693 0,-111.723 43.587,0 c 9.51899,0 17.03401,2.505005 22.879,7.348 6.012,5.510994 11.022,13.86101 11.022,23.881 0,14.69599 -8.18301,26.386 -21.543,31.062 l 25.885,49.432 -20.207,0 -23.046,-47.595 -21.71,0 0,47.595 -16.867,0"
     id="prefix"
     style="fill:#ffe200;stroke:none" />
  <g
     id="number"
     style="fill:#ffe200;stroke:none">
    <path
       d="m 90.744495,392.04564 0,-149.14208 147.082105,0 0,39.55149 -110.00258,0 0,62.2112 c 12.77176,-9.88769 27.60356,-14.83162 44.49543,-14.83181 10.23108,0.1461 19.63828,2.12024 28.22163,5.92243 8.58308,3.80254 15.51832,8.55765 20.80573,14.26531 3.51897,3.9227 6.67759,8.12848 9.47588,12.61735 2.79798,4.48917 5.13261,9.20994 7.00391,14.16231 3.63911,8.99535 5.42442,25.20046 5.35593,48.61537 0.008,9.66479 -0.31775,17.93901 -0.97849,24.82268 -0.66107,6.88381 -1.70822,12.48007 -3.14145,16.78879 -1.42499,4.32599 -3.2103,8.54893 -5.35594,12.66884 -2.14596,4.11998 -4.75525,8.13693 -7.82789,12.05084 -5.63076,7.167 -13.52732,13.74175 -23.68971,19.72424 -10.16265,5.98251 -22.17915,9.1583 -36.04953,9.52738 -8.84081,0.009 -17.52702,-1.34756 -26.05867,-4.06844 -8.53179,-2.72088 -17.012,-6.85799 -25.44066,-12.41134 -8.23135,-5.54475 -14.73743,-12.89199 -19.518254,-22.04173 -4.780872,-9.14967 -7.887994,-20.20484 -9.321377,-33.16556 l 39.551491,0 c 4.53188,21.76709 17.7157,32.61628 39.55149,32.54758 18.95164,3e-5 30.07549,-6.59187 33.37157,-19.77575 3.63915,-13.18376 5.42446,-26.36758 5.35593,-39.55149 0.0685,-15.72435 -2.54076,-28.35884 -7.8279,-37.90351 -5.35605,-10.23106 -16.0679,-15.31233 -32.13558,-15.2438 -15.24388,-0.0685 -27.19172,7.48471 -35.84354,22.6597 z"
       id="path3012" />
    <path
       d="m 276.62731,392.04564 0,-149.14208 147.0821,0 0,39.55149 -110.00258,0 0,62.2112 c 12.77177,-9.88769 27.60356,-14.83162 44.49543,-14.83181 10.23108,0.1461 19.63828,2.12024 28.22163,5.92243 8.58308,3.80254 15.51832,8.55765 20.80574,14.26531 3.51896,3.9227 6.67758,8.12848 9.47587,12.61735 2.79798,4.48917 5.13261,9.20994 7.00391,14.16231 3.63912,8.99535 5.42442,25.20046 5.35594,48.61537 0.008,9.66479 -0.31776,17.93901 -0.9785,24.82268 -0.66107,6.88381 -1.70822,12.48007 -3.14145,16.78879 -1.42499,4.32599 -3.2103,8.54893 -5.35593,12.66884 -2.14596,4.11998 -4.75526,8.13693 -7.8279,12.05084 -5.63075,7.167 -13.52731,13.74175 -23.6897,19.72424 -10.16266,5.98251 -22.17915,9.1583 -36.04953,9.52738 -8.84081,0.009 -17.52703,-1.34756 -26.05868,-4.06844 -8.53179,-2.72088 -17.012,-6.85799 -25.44066,-12.41134 -8.23135,-5.54475 -14.73743,-12.89199 -19.51825,-22.04173 -4.78087,-9.14967 -7.888,-20.20484 -9.32138,-33.16556 l 39.55149,0 c 4.53189,21.76709 17.7157,32.61628 39.55149,32.54758 18.95165,3e-5 30.07549,-6.59187 33.37157,-19.77575 3.63915,-13.18376 5.42446,-26.36758 5.35593,-39.55149 0.0685,-15.72435 -2.54076,-28.35884 -7.82789,-37.90351 -5.35606,-10.23106 -16.06791,-15.31233 -32.13559,-15.2438 -15.24388,-0.0685 -27.19172,7.48471 -35.84354,22.6597 z"
       id="path3014" />
    <path
       d="m 468.69004,391.63365 74.15905,-148.31809 44.08343,0 -58.09125,116.5945 0.82399,0 c 6.17982,-2.12849 13.18373,-3.22714 21.01173,-3.29596 8.46293,0.009 16.56549,1.53656 24.30768,4.58344 7.74193,3.0472 15.0205,7.56197 21.83572,13.54433 13.52699,12.42864 20.25623,32.06703 20.18774,58.91524 -1.7e-4,32.06698 -8.65205,54.86399 -25.95566,68.39112 -8.4632,6.59192 -17.38974,11.53585 -26.77966,14.83181 -9.39016,3.29595 -19.14069,4.94393 -29.25162,4.94393 -19.36383,0 -37.07958,-7.4159 -53.14732,-22.24771 -15.65582,-14.83178 -23.48371,-35.43149 -23.4837,-61.79921 -0.009,-8.46296 0.83257,-16.56551 2.52347,-24.30768 1.69088,-7.74196 4.28301,-15.02053 7.7764,-21.83572 z m 68.80312,0 c -11.12395,1.3e-4 -20.59981,3.70807 -28.42764,11.12386 -7.41596,7.89666 -11.12391,19.29517 -11.12386,34.19556 -5e-5,30.14432 13.18377,45.25078 39.5515,45.31941 9.13244,0.0687 18.05899,-3.36458 26.77965,-10.29987 8.58309,-6.52319 12.84036,-18.19636 12.77184,-35.01954 -0.0688,-15.31238 -4.05141,-26.71089 -11.94785,-34.19556 -7.34735,-7.41579 -16.54856,-11.12373 -27.60364,-11.12386 z"
       id="path3016" />
  </g>
</svg>
