<?xml version="1.0" encoding="UTF-8" standalone="no"?>
<!-- Created with Inkscape (http://www.inkscape.org/) -->

<svg
   xmlns:dc="http://purl.org/dc/elements/1.1/"
   xmlns:cc="http://creativecommons.org/ns#"
   xmlns:rdf="http://www.w3.org/1999/02/22-rdf-syntax-ns#"
   xmlns:svg="http://www.w3.org/2000/svg"
   xmlns="http://www.w3.org/2000/svg"
   xmlns:sodipodi="http://sodipodi.sourceforge.net/DTD/sodipodi-0.dtd"
   xmlns:inkscape="http://www.inkscape.org/namespaces/inkscape"
   width="702"
   height="602"
   id="roadsign"
   version="1.1"
   inkscape:version="0.48.4 r9939"
   sodipodi:docname="SA_road_R357.svg">
  <metadata
     id="metadata10">
    <rdf:RDF>
      <cc:Work
         rdf:about="">
        <dc:format>image/svg+xml</dc:format>
        <dc:type
           rdf:resource="http://purl.org/dc/dcmitype/StillImage" />
      </cc:Work>
    </rdf:RDF>
  </metadata>
  <defs
     id="defs2989" />
  <sodipodi:namedview
     id="base"
     pagecolor="#ffffff"
     bordercolor="#666666"
     borderopacity="1.0"
     inkscape:pageopacity="0.0"
     inkscape:pageshadow="2"
     inkscape:zoom="1.0813953"
     inkscape:cx="351"
     inkscape:cy="301"
     inkscape:document-units="px"
     inkscape:current-layer="roadsign"
     showgrid="false"
     inkscape:window-width="1920"
     inkscape:window-height="1030"
     inkscape:window-x="0"
     inkscape:window-y="0"
     inkscape:window-maximized="1" />
  <rect
     y="0"
     x="0"
     height="602"
     width="702"
     id="background"
     style="fill:#007b30;stroke:none" />
  <rect
     style="fill:none;stroke:#ffffff;stroke-width:20"
     id="border"
     width="680"
     height="580"
     x="11"
     y="11"
     ry="50"
     rx="50" />
  <path
     id="prefix"
     style="fill:#ffe200;stroke:none"
     d="m 331.94373,86.307 0,34.068 25.718,0 c 12.52499,0 18.871,-8.35001 18.871,-17.869 0,-5.510994 -1.837,-9.853003 -5.511,-12.692 -3.33999,-2.337998 -7.515,-3.507 -12.525,-3.507 l -26.553,0 m -16.867,96.693 0,-111.723 43.587,0 c 9.51899,0 17.03401,2.505005 22.879,7.348 6.012,5.510994 11.022,13.86101 11.022,23.881 0,14.69599 -8.18301,26.386 -21.543,31.062 l 25.885,49.432 -20.207,0 -23.046,-47.595 -21.71,0 0,47.595 -16.867,0"
     inkscape:connector-curvature="0" />
  <g
     style="fill:#ffe200;stroke:none"
     id="number">
    <path
       d="m 140.97978,394.10402 0,-35.02 13.184,0 c 26.36797,0 42.848,-16.06803 42.848,-39.14 0,-22.65998 -18.95202,-39.964 -40.376,-39.964 -16.47998,0 -34.196,11.53602 -37.904,33.372 l -39.551999,0 c 1.235999,-18.53999 9.064015,-35.43202 24.307999,-50.676 14.83199,-14.83199 32.13602,-22.248 51.5,-22.248 24.71998,0 44.49602,8.24001 59.328,24.308 14.83199,16.06798 22.248,34.19602 22.248,54.384 0,21.42397 -6.59202,42.02401 -29.664,57.268 23.48398,14.83198 32.96,38.31602 32.96,60.152 0,25.95597 -8.24001,46.55601 -24.308,61.8 -16.06798,15.24398 -35.84402,22.66 -59.74,22.66 -18.12798,0 -35.02001,-6.18002 -50.264,-18.128 -14.831984,-11.94799 -24.308002,-29.25203 -28.015999,-52.736 l 39.551999,0 c 7.00399,18.53998 18.12802,31.724 41.2,31.724 21.42398,0 42.024,-16.48003 42.024,-44.084 0,-28.01598 -19.77602,-43.672 -42.848,-43.672 l -16.48,0"
       id="path3082"
       inkscape:connector-curvature="0" />
    <path
       d="m 277.83459,392.04402 0,-149.144 147.084,0 0,39.552 -110.004,0 0,62.212 c 12.77199,-9.88799 27.60402,-14.832 44.496,-14.832 20.18798,0 38.72801,9.06401 49.028,20.188 7.004,7.82799 12.77201,16.89201 16.48,26.78 3.708,9.06399 5.356,25.13202 5.356,48.616 0,19.36398 -1.236,32.96 -4.12,41.612 -2.88399,8.65199 -7.004,16.892 -13.184,24.72 -11.12399,13.59598 -32.13602,29.252 -59.74,29.252 -17.71598,0 -34.60801,-5.35602 -51.5,-16.48 -16.47998,-11.12399 -25.956,-29.25203 -28.84,-55.208 l 39.552,0 c 4.532,21.83597 17.71603,32.548 39.552,32.548 18.95198,0 30.07601,-6.59202 33.372,-19.776 3.708,-13.18399 5.356,-26.36802 5.356,-39.552 0,-15.65599 -2.472,-28.42801 -7.828,-37.904 -5.35599,-10.29999 -16.06801,-15.244 -32.136,-15.244 -15.24398,0 -27.192,7.41601 -35.844,22.66 l -37.08,0"
       id="path3084"
       inkscape:connector-curvature="0" />
    <path
       d="m 464.12941,322.41602 0,-79.516 156.972,0 0,39.552 -93.524,236.076 -44.084,0 93.524,-236.076 -73.336,0 0,39.964 -39.552,0"
       id="path3086"
       inkscape:connector-curvature="0" />
  </g>
</svg>
